<?xml version="1.0" encoding="UTF-8" standalone="no"?>
<!DOCTYPE svg PUBLIC "-//W3C//DTD SVG 1.1//EN" "http://www.w3.org/Graphics/SVG/1.1/DTD/svg11.dtd">
<svg width="100%" height="100%" viewBox="0 0 217 256" version="1.1" xmlns="http://www.w3.org/2000/svg" xmlns:xlink="http://www.w3.org/1999/xlink" xml:space="preserve" xmlns:serif="http://www.serif.com/" style="fill-rule:evenodd;clip-rule:evenodd;stroke-linejoin:round;stroke-miterlimit:2;">
    <g transform="matrix(1,0,0,1,-18.834,-0.509475)">
        <g id="Wheel">
            <g id="Panels">
                <g transform="matrix(-1.03923,1.03923,-1.03923,-1.03923,373.19,134.331)">
                    <path d="M124.212,112.906L124.212,40.656C164.088,40.656 196.462,73.031 196.462,112.906L124.212,112.906Z" style="fill:rgb(49,111,184);"/>
                </g>
                <g transform="matrix(1.03923,1.03923,-1.03923,1.03923,115.02,-100.34)">
                    <path d="M124.212,112.906L124.212,40.656C164.088,40.656 196.462,73.031 196.462,112.906L124.212,112.906Z" style="fill:rgb(107,175,76);"/>
                </g>
                <g transform="matrix(1.03923,-1.03923,1.03923,1.03923,-119.651,157.83)">
                    <path d="M124.212,112.906L124.212,40.656C164.088,40.656 196.462,73.031 196.462,112.906L124.212,112.906Z" style="fill:rgb(217,68,61);"/>
                </g>
                <g transform="matrix(-1.03923,-1.03923,1.03923,-1.03923,138.519,392.501)">
                    <path d="M124.212,112.906L124.212,40.656C164.088,40.656 196.462,73.031 196.462,112.906L124.212,112.906Z" style="fill:rgb(24,31,37);"/>
                </g>
                <g transform="matrix(8.99928e-17,1.46969,-1.46969,8.99928e-17,350.54,-35.1505)">
                    <path d="M70.75,99.695C98.881,71.085 143.636,72.152 175.874,99.695C205.472,128.116 205.295,175.396 175.874,204.818C147.994,232.949 101.642,232.364 70.75,204.818C41.953,176.021 42.209,129.172 70.75,99.695ZM171.432,203.322C154.64,186.681 138.437,170.511 123.312,155.203C107.272,172.097 91.232,188.095 75.192,203.322C102.172,228.772 144.455,228.771 171.432,203.322ZM174.378,104.137C158.512,120.871 142.458,136.855 126.258,152.256C136.257,163.08 147.439,174.614 162.442,188.44L174.378,200.376C199.828,173.396 199.827,131.113 174.378,104.137ZM72.246,104.137C46.797,131.117 46.797,173.399 72.246,200.376C83.277,188.988 94.457,177.515 107.838,164.784L120.366,152.256C104.497,135.015 88.448,119.044 72.246,104.137ZM171.432,101.19C144.452,75.741 102.169,75.742 75.192,101.19C90.587,116.585 106.246,132.244 123.312,149.31L146.262,127.235L171.432,101.19Z"/>
                </g>
                <g transform="matrix(-0.11507,0.11507,-0.11507,-0.11507,154.055,144.779)">
                    <circle cx="124.212" cy="112.906" r="72.25" style="fill:rgb(202,141,91);"/>
                </g>
                <g transform="matrix(-0.11507,0.11507,-0.11507,-0.11507,154.055,144.779)">
                    <path d="M124.212,21.841C71.937,19.887 30.902,60.401 33.147,112.906C35.294,163.121 74.05,207.115 124.212,203.971C180.334,200.455 218.01,160.459 215.277,112.906C212.536,65.206 176.424,23.793 124.212,21.841ZM124.212,59.471C153.735,60.374 177.552,86.055 177.647,112.906C177.745,140.782 155.686,165.805 124.212,166.341C92.538,166.881 73.917,142.303 70.777,112.906C67.521,82.423 89.399,58.407 124.212,59.471Z"/>
                </g>
            </g>
        </g>
    </g>
</svg>
