<?xml version="1.0" encoding="UTF-8" standalone="no"?>
<!DOCTYPE svg PUBLIC "-//W3C//DTD SVG 1.1//EN" "http://www.w3.org/Graphics/SVG/1.1/DTD/svg11.dtd">
<svg width="100%" height="100%" viewBox="0 0 217 256" version="1.1" xmlns="http://www.w3.org/2000/svg" xmlns:xlink="http://www.w3.org/1999/xlink" xml:space="preserve" xmlns:serif="http://www.serif.com/" style="fill-rule:evenodd;clip-rule:evenodd;stroke-linejoin:round;stroke-miterlimit:2;">
    <g transform="matrix(1,0,0,1,-18.834,-0.509475)">
        <g id="ArrowDial">            
            <g id="Dial" transform="matrix(1.46969,0,0,1.46969,-52.8819,-77.5354)">
                <path d="M120.701,56.952C118.691,56.923 116.671,59.045 115.628,60.569C113.357,63.89 112.718,68.911 112.792,72.139C112.792,72.155 112.792,72.17 112.792,72.186L112.792,81.35C112.792,82.5 111.613,82.901 110.463,82.901C109.313,82.901 108.093,83.114 108.093,81.964C108.093,81.964 108.544,72.145 108.544,72.193C108.455,68.258 110.075,62.716 112.844,58.667C114.88,55.691 117.582,53.563 120.665,53.124C120.908,53.089 121.155,53.098 121.395,53.149C123.308,53.559 125.281,54.999 126.883,57.058C129.06,59.857 129.284,62.011 129.805,66.445C130.314,70.776 130.542,88.428 130.542,88.428C131.169,89.325 136.396,88.551 136.029,87.765C134.863,95.479 131.932,103.086 128.404,108.601C125.263,102.521 122.736,95.812 121.527,87.946C121.586,88.825 126.388,89.103 126.376,88.344C126.376,88.344 127.143,86.39 126.498,67.167C126.337,62.353 124.014,57 120.701,56.952Z"/>
            </g>
        </g>
    </g>
</svg>
