<?xml version="1.0" encoding="UTF-8" standalone="no"?>
<!DOCTYPE svg PUBLIC "-//W3C//DTD SVG 1.1//EN" "http://www.w3.org/Graphics/SVG/1.1/DTD/svg11.dtd">
<svg width="100%" height="100%" viewBox="0 0 145 171" version="1.1" xmlns="http://www.w3.org/2000/svg" xmlns:xlink="http://www.w3.org/1999/xlink" xml:space="preserve" xmlns:serif="http://www.serif.com/" style="fill-rule:evenodd;clip-rule:evenodd;stroke-linejoin:round;stroke-miterlimit:2;">
    <g transform="matrix(1,0,0,1,-19.052,-9.7849)">
        <g transform="matrix(2.11946,0,0,2.11946,-125.474,-79.3066)">
            <g>
                <path d="M110.817,86.902C106.864,86.631 103.464,86.778 100.9,87.534C98.858,88.136 97.328,89.126 96.413,90.56C95.499,91.992 95.182,93.881 95.646,96.33C95.709,96.662 96.029,96.881 96.361,96.818C96.693,96.755 96.912,96.434 96.849,96.102C96.456,94.033 96.672,92.429 97.444,91.219C98.215,90.012 99.527,89.215 101.246,88.708C103.699,87.985 106.952,87.864 110.734,88.123C111.071,88.146 111.363,87.891 111.386,87.554C111.409,87.217 111.154,86.925 110.817,86.902Z"/>
                <g transform="matrix(1.22406,0,0,1.22406,54.6617,30.0576)">
                    <path d="M47.044,74.48C48.101,74.393 49.092,73.827 50.008,72.801C52.288,70.247 54.067,64.986 55.124,56.912C55.16,56.638 55.411,56.445 55.684,56.481C55.958,56.517 56.151,56.768 56.115,57.042C55.021,65.399 53.114,70.824 50.754,73.467C49.508,74.862 48.128,75.518 46.67,75.491C46.663,75.491 46.657,75.49 46.651,75.49C46.621,75.489 46.591,75.488 46.56,75.487C45.102,75.425 43.543,74.667 41.947,73.186C41.745,72.998 41.733,72.681 41.92,72.479C42.108,72.277 42.425,72.265 42.627,72.453C43.371,73.143 44.1,73.665 44.812,74.007C44.121,73.105 43.681,71.95 43.516,70.524C43.484,70.25 43.681,70.001 43.955,69.97C44.229,69.938 44.477,70.134 44.509,70.409C44.67,71.8 45.125,72.895 45.867,73.705C45.742,72.81 45.791,71.943 46.108,71.123C46.207,70.865 46.497,70.737 46.754,70.836C47.012,70.936 47.14,71.225 47.041,71.483C46.678,72.422 46.764,73.433 47.044,74.48Z"/>
                </g>
                <path d="M111.827,92.731C109.681,92.406 107.868,92.372 106.418,92.642C104.85,92.934 103.686,93.582 102.935,94.574C101.961,95.861 101.669,97.771 102.242,100.38C102.314,100.71 102.641,100.919 102.971,100.846C103.301,100.774 103.51,100.447 103.437,100.117C102.964,97.963 103.107,96.375 103.911,95.312C104.495,94.541 105.421,94.073 106.642,93.845C107.983,93.596 109.659,93.641 111.644,93.942C111.978,93.992 112.29,93.762 112.34,93.428C112.391,93.094 112.161,92.782 111.827,92.731Z"/>
                <g transform="matrix(1.22406,0,0,1.22406,54.6617,30.0576)">
                    <path d="M47.91,61.647C48.405,61.293 48.979,60.986 49.59,60.698C50.703,60.176 51.936,59.706 52.935,59.043C53.834,58.447 54.54,57.691 54.706,56.539C54.746,56.266 55,56.076 55.273,56.116C55.546,56.155 55.736,56.409 55.696,56.682C55.485,58.141 54.626,59.122 53.488,59.877C52.449,60.565 51.172,61.06 50.016,61.603C49.54,61.827 49.084,62.054 48.682,62.312C48.991,63.81 49.335,64.542 50.334,64.991C50.586,65.104 50.699,65.4 50.586,65.652C50.473,65.903 50.177,66.016 49.925,65.903C49.181,65.569 48.688,65.133 48.326,64.445C48.483,65.112 48.745,65.673 49.169,66.08C49.368,66.271 49.374,66.587 49.183,66.786C48.992,66.986 48.675,66.992 48.476,66.801C47.823,66.174 47.446,65.257 47.261,64.153C47.135,64.821 47.28,65.644 47.761,66.704C47.876,66.955 47.764,67.252 47.513,67.366C47.262,67.48 46.965,67.369 46.851,67.118C46.158,65.595 46.091,64.451 46.384,63.556C46.548,63.055 46.831,62.626 47.2,62.248C47.241,62.184 47.296,62.131 47.36,62.092C47.487,61.974 47.623,61.861 47.766,61.753C47.807,61.709 47.855,61.673 47.91,61.647Z"/>
                </g>
            </g>
            <g>
                <g transform="matrix(1.22406,0,0,1.22406,54.6617,30.0576)">
                    <path d="M50.768,38.782L49.924,36.553C49.826,36.295 49.956,36.007 50.214,35.909C50.472,35.811 50.761,35.941 50.859,36.199L51.713,38.455C52.016,38.367 52.326,38.292 52.64,38.232L52.131,37.105C52.018,36.854 52.13,36.557 52.381,36.444C52.633,36.33 52.929,36.442 53.043,36.693L53.673,38.088C53.812,38.076 53.952,38.067 54.092,38.06L53.687,36.969C53.591,36.71 53.723,36.422 53.982,36.326C54.24,36.23 54.528,36.362 54.624,36.621L55.161,38.065C55.258,38.071 55.354,38.077 55.449,38.085L55.539,36.913C55.561,36.638 55.801,36.432 56.076,36.453C56.351,36.474 56.558,36.715 56.536,36.99L56.442,38.219C56.647,38.256 56.849,38.3 57.049,38.35L57.679,37.047C57.799,36.799 58.099,36.695 58.347,36.815C58.595,36.935 58.7,37.235 58.579,37.483L58.045,38.587L59.231,36.829C59.385,36.6 59.696,36.54 59.925,36.694C60.154,36.848 60.214,37.159 60.06,37.388L58.952,39.031C58.99,39.05 59.029,39.068 59.067,39.087L60.348,37.43C60.517,37.212 60.831,37.171 61.049,37.34C61.268,37.509 61.308,37.823 61.139,38.042L59.951,39.579C60.096,39.669 60.238,39.762 60.377,39.859L61.198,39.138C61.405,38.956 61.721,38.976 61.903,39.183C62.086,39.391 62.065,39.707 61.858,39.889L61.182,40.483C61.462,40.724 61.729,40.98 61.98,41.249L63.273,40.311C63.497,40.149 63.81,40.199 63.972,40.423C64.134,40.646 64.084,40.959 63.86,41.121L62.625,42.016C62.739,42.166 62.848,42.319 62.953,42.475L65.552,40.866C65.787,40.721 66.095,40.793 66.24,41.028C66.386,41.263 66.313,41.571 66.078,41.716L63.466,43.333C63.487,43.372 63.508,43.412 63.528,43.451L65.378,42.758C65.637,42.661 65.925,42.792 66.022,43.05C66.119,43.309 65.988,43.597 65.729,43.694L63.939,44.365C64.009,44.546 64.074,44.729 64.133,44.915L65.778,44.616C66.05,44.567 66.31,44.747 66.359,45.019C66.409,45.29 66.228,45.551 65.957,45.6L64.387,45.885C64.429,46.088 64.464,46.294 64.493,46.501L66.29,46.134C66.561,46.079 66.825,46.254 66.88,46.524C66.935,46.795 66.761,47.059 66.49,47.114L64.579,47.504C64.582,47.61 64.584,47.716 64.584,47.823C64.584,47.886 64.583,47.948 64.582,48.01L65.819,47.755C66.089,47.7 66.354,47.874 66.409,48.144C66.465,48.415 66.291,48.679 66.021,48.735L64.506,49.047C64.492,49.159 64.475,49.271 64.457,49.382L65.678,49.695C65.945,49.764 66.107,50.036 66.038,50.304C65.97,50.571 65.697,50.732 65.43,50.664L64.243,50.36C64.171,50.623 64.088,50.881 63.994,51.135L65.135,51.66C65.386,51.775 65.496,52.072 65.381,52.323C65.265,52.574 64.968,52.684 64.718,52.569L63.599,52.054C63.501,52.253 63.396,52.448 63.285,52.639L64.15,53.612C64.333,53.818 64.315,54.135 64.108,54.318C63.902,54.501 63.586,54.483 63.402,54.276L62.717,53.506C62.534,53.756 62.338,53.998 62.131,54.23L62.861,55.15C63.032,55.366 62.996,55.681 62.78,55.852C62.563,56.024 62.249,55.987 62.077,55.771L61.424,54.948C61.288,55.073 61.148,55.194 61.005,55.312L62.452,56.723C62.65,56.916 62.654,57.233 62.461,57.43C62.268,57.628 61.951,57.632 61.754,57.439L60.19,55.914C60.058,56.001 59.923,56.086 59.787,56.168L60.68,57.418C60.84,57.643 60.788,57.955 60.564,58.116C60.339,58.276 60.026,58.224 59.866,57.999L58.896,56.641C58.749,56.71 58.6,56.775 58.449,56.837L59.164,58.505C59.273,58.759 59.155,59.053 58.901,59.162C58.648,59.27 58.354,59.153 58.245,58.899L57.504,57.171C57.425,57.195 57.345,57.218 57.265,57.24L57.424,58.754C57.453,59.029 57.254,59.275 56.979,59.304C56.705,59.333 56.458,59.133 56.429,58.859L56.282,57.456C55.793,57.538 55.292,57.585 54.782,57.595L54.962,58.615C55.01,58.887 54.828,59.147 54.556,59.194C54.284,59.242 54.025,59.061 53.977,58.789L53.761,57.565C53.71,57.561 53.659,57.557 53.609,57.552L53.503,58.646C53.476,58.92 53.232,59.122 52.957,59.095C52.683,59.069 52.481,58.824 52.508,58.549L52.618,57.41C52.494,57.386 52.371,57.36 52.249,57.331L52.034,58.529C51.985,58.801 51.725,58.982 51.453,58.933C51.181,58.884 51,58.624 51.049,58.352L51.282,57.055C51.253,57.045 51.224,57.035 51.196,57.025L50.372,58.115C50.205,58.335 49.891,58.378 49.671,58.212C49.451,58.046 49.408,57.732 49.574,57.512L50.239,56.633C50.065,56.551 49.894,56.464 49.726,56.373L49.158,57.424C49.027,57.666 48.723,57.757 48.48,57.626C48.237,57.494 48.147,57.191 48.278,56.948L48.871,55.852C48.724,55.753 48.581,55.65 48.441,55.543L47.679,56.77C47.533,57.004 47.224,57.076 46.99,56.931C46.756,56.785 46.684,56.477 46.829,56.242L47.668,54.893C47.608,54.837 47.549,54.78 47.49,54.723L45.559,57.23C45.39,57.448 45.076,57.489 44.857,57.32C44.639,57.152 44.598,56.838 44.767,56.619L46.803,53.976C46.781,53.951 46.76,53.925 46.738,53.898L45.76,54.785C45.555,54.971 45.239,54.955 45.054,54.75C44.868,54.546 44.884,54.23 45.088,54.044L46.144,53.087C46.067,52.97 45.993,52.85 45.921,52.73L44.664,53.393C44.42,53.522 44.117,53.428 43.988,53.184C43.86,52.94 43.953,52.637 44.197,52.509L45.454,51.845C45.334,51.588 45.226,51.324 45.13,51.055L44.198,51.428C43.942,51.531 43.651,51.406 43.548,51.15C43.446,50.893 43.57,50.602 43.827,50.5L44.841,50.094C44.806,49.954 44.775,49.812 44.747,49.669L43.6,49.708C43.332,49.776 43.059,49.615 42.991,49.348C42.922,49.081 43.083,48.808 43.351,48.739L44.608,48.697C44.583,48.42 44.57,48.14 44.569,47.857L43.564,48.008C43.291,48.048 43.036,47.86 42.995,47.587C42.954,47.314 43.142,47.06 43.415,47.019L44.619,46.838C44.645,46.585 44.681,46.335 44.726,46.087L43.465,46.026C43.189,46.012 42.977,45.778 42.99,45.502C43.004,45.226 43.238,45.013 43.514,45.027L44.963,45.098C44.966,45.089 44.969,45.08 44.972,45.07C44.195,44.687 43.339,44.31 43.339,44.31C43.087,44.198 42.973,43.902 43.085,43.65C43.197,43.398 43.493,43.284 43.745,43.396C43.745,43.396 44.529,43.748 45.308,44.132C45.357,44.014 45.409,43.897 45.462,43.782L43.984,42.986C43.741,42.855 43.65,42.552 43.781,42.309C43.912,42.066 44.216,41.975 44.459,42.106L45.931,42.899C45.956,42.858 45.981,42.817 46.006,42.776L43.78,41.231C43.553,41.074 43.496,40.762 43.654,40.536C43.811,40.309 44.123,40.252 44.35,40.41L46.575,41.953C46.847,41.601 47.143,41.266 47.461,40.953L45.309,39.561C45.078,39.411 45.011,39.101 45.161,38.869C45.311,38.638 45.621,38.571 45.853,38.721L46.599,39.204C46.61,39.093 46.658,38.984 46.744,38.898C46.939,38.703 47.256,38.703 47.451,38.898L48.563,40.011C48.758,39.868 48.957,39.732 49.162,39.603L48.562,38.69C48.41,38.46 48.474,38.149 48.705,37.998C48.935,37.846 49.245,37.91 49.397,38.141L50.036,39.112C50.274,38.993 50.519,38.883 50.768,38.782Z"/>
                </g>
                <g transform="matrix(0.907407,0,0,0.981481,8.97505,2.70217)">
                    <circle cx="116.216" cy="88.06" r="3.857" style="fill:rgb(235,235,235);"/>
                </g>
                <g transform="matrix(1,0,0,0.944444,6.14286,9.10651)">
                    <circle cx="116.216" cy="88.06" r="3.857" style="fill:rgb(235,235,235);"/>
                </g>
                <g transform="matrix(0.826087,0,0,0.826087,42.9269,30.9185)">
                    <circle cx="86.382" cy="72.165" r="1.472"/>
                </g>
                <g transform="matrix(0.826087,0,0,0.826087,49.7109,33.6065)">
                    <circle cx="86.382" cy="72.165" r="1.472"/>
                </g>
            </g>
            <path d="M91.859,106.206L88.623,102.069L94.644,100.185L96.569,94.164L102.099,98.915L106.277,96.007L107.26,101.004L112.011,101.373L108.693,107.189L110.291,112.637L105.007,112.718L103.983,116.733L99.764,114.07L94.726,116.978L94.357,111.326L88.582,111.121L91.859,106.206Z" style="fill:rgb(119,197,96);"/>
        </g>
        <g transform="matrix(2.11946,0,0,2.11946,-125.474,-79.3066)">
            <g>
                <path d="M71.938,57.059C72.191,53.63 74.667,51.438 77.926,50.169C82.601,48.348 88.875,48.444 91.81,49.199C92.137,49.283 92.334,49.617 92.25,49.944C92.166,50.271 91.832,50.469 91.505,50.384C88.728,49.67 82.793,49.587 78.37,51.309C75.57,52.4 73.366,54.218 73.157,57.168L73.152,57.211C72.844,59.372 73.556,61.135 74.902,62.65C76.325,64.251 78.433,65.579 80.825,66.802C81.126,66.956 81.245,67.325 81.091,67.626C80.938,67.927 80.569,68.046 80.268,67.892C75.075,65.237 71.243,62.011 71.938,57.059Z"/>
                <path d="M108.944,75.279C112.057,70.806 111.429,66.416 108.739,62.072C108.562,61.785 108.65,61.407 108.938,61.23C109.225,61.052 109.602,61.141 109.78,61.428C112.753,66.229 113.383,71.083 109.914,76.028L109.844,76.112C106.94,78.983 103.84,79.501 100.645,78.889C100.313,78.825 100.096,78.504 100.159,78.172C100.223,77.84 100.544,77.623 100.876,77.686C103.677,78.224 106.396,77.776 108.944,75.279Z"/>
                <g transform="matrix(1.22406,0,0,1.22406,54.6617,30.0576)">
                    <path d="M19.09,56.428C15.73,55.214 13.526,53.776 12.305,52.327C11.323,51.162 10.95,49.974 11.076,48.858C11.201,47.746 11.828,46.69 12.92,45.788C14.441,44.532 16.895,43.565 20.073,43.172C20.347,43.138 20.597,43.333 20.631,43.607C20.665,43.881 20.47,44.13 20.196,44.164C17.25,44.528 14.966,45.395 13.556,46.559C12.693,47.272 12.169,48.091 12.069,48.971C11.97,49.847 12.298,50.767 13.069,51.682C14.343,53.193 16.772,54.654 20.539,55.866C20.585,55.881 20.628,55.902 20.668,55.929C22.014,56.85 22.735,58.36 22.6,60.638C22.583,60.914 22.346,61.124 22.071,61.108C21.795,61.091 21.585,60.854 21.601,60.579C21.677,59.315 21.454,58.333 20.955,57.601C20.834,59.779 19.601,61.426 17.452,62.634C17.211,62.769 16.906,62.683 16.771,62.443C16.636,62.202 16.721,61.897 16.962,61.762C18.927,60.658 20.016,59.136 19.961,57.065C19.494,58.553 18.229,59.41 16.544,59.72C16.273,59.77 16.012,59.59 15.962,59.319C15.912,59.047 16.092,58.786 16.363,58.736C17.766,58.478 18.825,57.762 19.09,56.428Z"/>
                </g>
                <path d="M99.011,96.261C98.507,93.148 96.64,90.425 94.146,87.877C93.91,87.635 93.914,87.247 94.155,87.011C94.397,86.775 94.784,86.779 95.021,87.02C98.066,90.132 100.193,93.51 100.378,97.436L99.011,96.261Z"/>
            </g>
            <g>
                <g transform="matrix(1.22406,0,0,1.22406,54.6617,30.0576)">
                    <path d="M27.323,26.849L26.856,24.845C26.794,24.576 26.961,24.307 27.23,24.245C27.499,24.182 27.768,24.349 27.83,24.618L28.354,26.869C28.456,26.876 28.558,26.884 28.659,26.893L28.889,25.135C28.925,24.862 29.176,24.669 29.449,24.704C29.723,24.74 29.916,24.991 29.88,25.265L29.649,27.031C30.031,27.102 30.406,27.193 30.773,27.303C30.951,26.601 31.176,25.743 31.176,25.743C31.246,25.476 31.52,25.316 31.787,25.386C32.054,25.456 32.214,25.729 32.144,25.996C32.144,25.996 31.898,26.931 31.72,27.632C31.921,27.713 32.118,27.799 32.313,27.89L33.44,26.433C33.608,26.215 33.923,26.175 34.141,26.344C34.359,26.513 34.399,26.827 34.231,27.045L33.211,28.364C33.476,28.52 33.734,28.686 33.984,28.863L34.966,27.947C35.168,27.758 35.485,27.769 35.673,27.971C35.861,28.173 35.85,28.489 35.649,28.678L34.784,29.485C34.986,29.657 35.182,29.837 35.372,30.023L36.061,29.197C36.238,28.985 36.553,28.956 36.765,29.133C36.977,29.309 37.006,29.625 36.829,29.837L36.058,30.762C36.195,30.925 36.328,31.091 36.456,31.261L37.35,30.7C37.584,30.553 37.893,30.623 38.04,30.857C38.187,31.091 38.116,31.4 37.882,31.546L37.022,32.087C37.08,32.182 37.138,32.277 37.194,32.374L39.352,31.403C39.604,31.29 39.9,31.402 40.013,31.654C40.126,31.906 40.014,32.202 39.762,32.315L37.656,33.263C37.766,33.5 37.868,33.742 37.961,33.988L39.626,32.942C39.859,32.795 40.168,32.865 40.315,33.099C40.462,33.332 40.391,33.641 40.158,33.788L38.281,34.968C38.326,35.132 38.367,35.297 38.404,35.464L39.791,34.969C40.05,34.876 40.337,35.012 40.43,35.271C40.522,35.531 40.387,35.818 40.127,35.91L38.582,36.462C38.623,36.776 38.65,37.094 38.664,37.416L40.057,37.125C40.327,37.069 40.592,37.242 40.649,37.512C40.705,37.783 40.532,38.048 40.262,38.104L38.662,38.438C38.636,38.992 38.568,39.535 38.463,40.065L39.957,40.589C40.217,40.681 40.355,40.966 40.263,41.227C40.172,41.487 39.886,41.624 39.626,41.533L38.223,41.041C38.202,41.109 38.182,41.177 38.16,41.244L39.644,41.723C39.907,41.808 40.051,42.09 39.966,42.353C39.881,42.615 39.599,42.76 39.337,42.675L37.815,42.183C37.709,42.433 37.595,42.678 37.473,42.918L38.752,43.367C39.013,43.458 39.15,43.744 39.059,44.004C38.967,44.265 38.682,44.402 38.421,44.31L36.97,43.801C36.902,43.908 36.833,44.013 36.762,44.117L38.13,44.644C38.388,44.743 38.517,45.032 38.418,45.29C38.319,45.547 38.029,45.676 37.771,45.577L36.137,44.948C36.059,45.043 35.979,45.137 35.897,45.229L36.551,45.525C36.802,45.638 36.914,45.935 36.8,46.186C36.687,46.438 36.39,46.55 36.139,46.436L35.155,45.991C34.92,46.21 34.675,46.419 34.422,46.617L35.371,47.318C35.592,47.483 35.639,47.796 35.475,48.018C35.311,48.24 34.998,48.286 34.776,48.122L33.564,47.225C33.255,47.423 32.935,47.605 32.607,47.772L33.377,48.665C33.557,48.874 33.534,49.19 33.325,49.37C33.116,49.551 32.8,49.527 32.62,49.319L31.654,48.199C31.598,48.222 31.541,48.244 31.483,48.265L31.897,49.427C31.989,49.687 31.853,49.973 31.593,50.065C31.333,50.158 31.047,50.022 30.955,49.762L30.531,48.572C30.369,48.616 30.206,48.657 30.041,48.694L30.948,50.802C31.057,51.056 30.94,51.35 30.686,51.459C30.433,51.568 30.139,51.451 30.03,51.197L29.029,48.871C28.83,48.897 28.629,48.917 28.427,48.932L28.673,50.345C28.72,50.617 28.537,50.876 28.266,50.923C27.994,50.971 27.735,50.788 27.687,50.516L27.416,48.959C27.273,48.957 27.131,48.951 26.988,48.943L26.591,50.582C26.526,50.85 26.256,51.015 25.987,50.95C25.719,50.885 25.554,50.615 25.619,50.346L25.984,48.841C25.582,48.781 25.187,48.7 24.801,48.599L24.342,50.108C24.261,50.372 23.982,50.521 23.718,50.441C23.454,50.36 23.305,50.081 23.385,49.817L23.846,48.3C23.638,48.225 23.432,48.143 23.229,48.055L21.786,49.963C21.619,50.183 21.306,50.226 21.085,50.06C20.865,49.893 20.822,49.58 20.988,49.36L22.314,47.607C21.959,47.413 21.617,47.2 21.287,46.969L20.331,48.109C20.154,48.32 19.838,48.348 19.627,48.17C19.415,47.993 19.388,47.677 19.565,47.466L20.494,46.359C20.262,46.163 20.038,45.958 19.823,45.744L18.459,46.868C18.246,47.044 17.931,47.013 17.755,46.8C17.58,46.587 17.61,46.272 17.823,46.096L19.145,45.007C18.77,44.561 18.43,44.085 18.129,43.583L16.981,44.354C16.752,44.508 16.441,44.447 16.287,44.218C16.133,43.989 16.194,43.678 16.423,43.524L17.652,42.699C17.628,42.649 17.604,42.599 17.581,42.549L16.683,42.899C16.426,42.999 16.136,42.872 16.036,42.615C15.935,42.358 16.063,42.068 16.32,41.967L17.201,41.623C17.048,41.196 16.921,40.756 16.821,40.306C16.388,40.33 16.034,40.355 16.034,40.355C15.759,40.374 15.52,40.166 15.501,39.891C15.482,39.616 15.69,39.377 15.965,39.358C15.965,39.358 16.259,39.339 16.649,39.319C16.59,38.861 16.56,38.395 16.559,37.922C15.624,37.918 14.539,37.947 14.539,37.947C14.263,37.954 14.034,37.735 14.027,37.459C14.021,37.184 14.239,36.954 14.515,36.947C14.515,36.947 15.623,36.923 16.601,36.93C16.63,36.6 16.673,36.274 16.73,35.953L15.888,35.76C15.619,35.698 15.451,35.429 15.512,35.16C15.574,34.891 15.842,34.723 16.111,34.785L16.95,34.978C17.023,34.711 17.106,34.449 17.198,34.191L15.133,33.928C14.859,33.893 14.666,33.642 14.701,33.369C14.735,33.095 14.986,32.901 15.26,32.936L17.591,33.234C17.66,33.086 17.732,32.941 17.807,32.798L16.699,32.199C16.456,32.067 16.365,31.764 16.497,31.521C16.628,31.278 16.932,31.188 17.174,31.319L18.309,31.933C18.46,31.698 18.62,31.469 18.788,31.246L17.728,30.534C17.499,30.38 17.438,30.069 17.592,29.84C17.746,29.611 18.057,29.55 18.286,29.704L19.43,30.473C19.796,30.07 20.191,29.694 20.612,29.349L19.69,28.188C19.519,27.972 19.555,27.657 19.771,27.485C19.987,27.314 20.302,27.35 20.474,27.566L21.413,28.75C21.716,28.544 22.029,28.353 22.353,28.178L21.095,26.58C20.924,26.363 20.961,26.049 21.178,25.878C21.395,25.707 21.71,25.745 21.88,25.962L23.274,27.731C23.558,27.61 23.848,27.5 24.144,27.402L23.275,25.509C23.16,25.258 23.27,24.961 23.521,24.846C23.772,24.731 24.069,24.841 24.184,25.092L25.118,27.129C25.263,27.095 25.408,27.065 25.555,27.037L25.254,25.897C25.183,25.63 25.343,25.356 25.609,25.286C25.876,25.215 26.15,25.374 26.221,25.641L26.552,26.895C26.806,26.871 27.063,26.855 27.323,26.849Z"/>
                </g>
                <g transform="matrix(1.01811,0.390623,-0.393579,1.02581,27.6928,-35.6108)">
                    <ellipse cx="84.788" cy="74.774" rx="3.857" ry="4.571" style="fill:rgb(235,235,235);"/>
                </g>
                <g transform="matrix(0.963065,-0.358124,0.370252,0.995681,-14.6127,31.0552)">
                    <ellipse cx="84.788" cy="74.774" rx="3.857" ry="4.571" style="fill:rgb(235,235,235);"/>
                </g>
                <g transform="matrix(1,0,0,1,8.384,0.896)">
                    <circle cx="86.382" cy="72.165" r="1.472"/>
                </g>
                <g transform="matrix(1,0,0,1,-0.256,-0.384)">
                    <circle cx="86.382" cy="72.165" r="1.472"/>
                </g>
            </g>
            <g transform="matrix(-0.952965,-0.553311,0.53407,-0.919826,139.914,206.944)">
                <path d="M91.859,106.206L88.623,102.069L94.644,100.185L96.569,94.164L102.099,98.915L106.277,96.007L107.26,101.004L112.011,101.373L108.693,107.189L110.291,112.637L105.007,112.718L103.983,116.733L99.764,114.07L94.726,116.978L94.357,111.326L88.582,111.121L91.859,106.206Z" style="fill:rgb(242,187,71);"/>
            </g>
        </g>
    </g>
</svg>
