<?xml version="1.0" encoding="UTF-8" standalone="no"?>
<!DOCTYPE svg PUBLIC "-//W3C//DTD SVG 1.1//EN" "http://www.w3.org/Graphics/SVG/1.1/DTD/svg11.dtd">
<svg width="100%" height="100%" viewBox="0 0 160 146" version="1.1" xmlns="http://www.w3.org/2000/svg" xmlns:xlink="http://www.w3.org/1999/xlink" xml:space="preserve" xmlns:serif="http://www.serif.com/" style="fill-rule:evenodd;clip-rule:evenodd;stroke-linejoin:round;stroke-miterlimit:2;">
    <g transform="matrix(1,0,0,1,-10.3749,-13.9097)">
        <path d="M22.167,108.988C15.597,106.091 11.049,101.186 10.395,93.074C10.175,90.354 11.816,85.933 12.981,81.866C15.509,73.038 20.356,63.576 31.52,62.182C38.932,61.257 46.029,64.667 51.909,69.415C57.783,74.158 61.799,80.194 61.882,87.25C62.025,99.448 55.242,109.497 44.679,111.968C51.54,119.77 51.611,130.278 49.876,143.425C49.708,144.693 49.867,146.156 49.992,147.635C50.125,149.202 50.22,150.787 49.924,152.203C49.895,152.343 49.808,152.463 49.684,152.534C49.56,152.606 49.412,152.62 49.277,152.576C48.204,152.219 47.461,151.714 46.974,151.103C46.026,151.692 44.927,152.281 43.736,152.869C43.668,152.903 43.594,152.921 43.518,152.921C42.546,152.928 41.718,152.676 41.137,151.979C40.685,152.471 40.137,152.964 39.5,153.457C39.325,153.592 39.081,153.596 38.901,153.466C38.317,153.042 37.899,152.535 37.608,151.965C36.481,152.671 35.303,153.228 34.093,153.688C34.012,153.719 33.925,153.728 33.839,153.715C32.111,153.451 30.696,152.977 29.533,152.336C28.81,153.111 28.122,153.684 27.494,153.99C27.342,154.064 27.163,154.057 27.018,153.97C26.415,153.61 25.986,153.119 25.687,152.53C24.65,153.195 23.661,153.719 22.703,154.146C22.456,154.281 22.088,154.263 21.816,153.795C21.475,153.207 21.058,151.345 20.939,150.49C20.93,150.419 20.881,150.353 20.827,150.285C20.735,150.167 20.613,150.056 20.485,149.952C20.29,149.795 20.079,149.658 19.905,149.554C19.475,150.098 18.896,150.568 18.139,150.948C17.944,151.046 17.708,151.006 17.556,150.849C16.731,150 16.25,149.339 15.965,148.794C14.827,149.128 13.858,149.12 12.994,148.906C12.791,148.856 12.641,148.685 12.618,148.477C12.49,147.336 13.015,146.315 13.535,145.322C13.951,144.529 14.381,143.763 14.169,142.917C11.054,130.459 11.7,117.237 22.731,108.531L22.167,108.988ZM33.315,152.609C33.043,151.725 32.647,150.763 32.326,149.759C31.903,148.441 31.611,147.054 31.817,145.678C32.378,141.939 33.042,139.815 32.646,136.771C32.229,133.561 30.631,131.559 28.57,131.241C26.474,130.917 24.014,132.328 21.952,135.727C21.915,135.788 21.867,135.838 21.812,135.877C21.766,135.996 21.738,136.18 21.701,136.408C21.571,137.224 21.534,138.513 21.584,139.986C21.657,142.139 21.919,144.68 22.384,146.728C22.488,147.187 22.485,147.606 22.429,147.999C22.361,148.465 22.213,148.891 22.087,149.307C21.981,149.657 21.888,149.997 21.931,150.357C22.026,151.041 22.311,152.443 22.588,153.1C23.562,152.647 24.572,152.086 25.634,151.367C25.764,151.28 25.926,151.257 26.074,151.307C26.222,151.357 26.338,151.472 26.388,151.62C26.571,152.157 26.855,152.618 27.302,152.957C27.849,152.626 28.437,152.072 29.061,151.369C29.221,151.188 29.488,151.148 29.695,151.274C30.675,151.871 31.868,152.324 33.315,152.609ZM43.539,135.605C43.522,135.59 43.505,135.574 43.489,135.556C41.813,133.665 40.303,132.849 38.951,132.852C36.939,132.855 35.386,134.662 34.313,137.043C33.877,138.011 33.823,139.183 33.917,140.522C34.069,142.67 34.613,145.222 34.808,148.051C34.902,149.409 34.438,151.042 34.325,152.498L34.331,152.518C35.442,152.059 36.523,151.505 37.554,150.807C37.683,150.72 37.845,150.698 37.992,150.747C38.14,150.796 38.256,150.91 38.307,151.057C38.485,151.571 38.769,152.032 39.198,152.421C39.849,151.891 40.387,151.363 40.801,150.833C40.907,150.697 41.077,150.625 41.249,150.644C41.421,150.663 41.571,150.769 41.646,150.925C42.002,151.668 42.639,151.905 43.399,151.92C43.52,151.86 43.641,151.8 43.76,151.74C43.721,151.686 43.692,151.624 43.677,151.555C43.471,150.623 43.208,149.599 43.076,148.53C42.991,147.835 42.959,147.121 43.029,146.401C43.288,143.745 43.858,140.843 43.938,138.531C43.978,137.346 43.901,136.325 43.539,135.605ZM23.212,109.426C12.652,117.866 12.132,130.648 15.139,142.674C15.411,143.761 14.955,144.768 14.421,145.786C14.048,146.498 13.63,147.215 13.599,148.008C14.317,148.119 15.124,148.047 16.066,147.71C16.322,147.619 16.604,147.748 16.701,148.002C16.888,148.488 17.268,149.075 18.013,149.878C18.594,149.535 19.028,149.118 19.331,148.635C19.467,148.418 19.745,148.34 19.975,148.452C19.975,148.452 20.574,148.747 21.091,149.158C21.212,148.743 21.376,148.321 21.445,147.855C21.486,147.573 21.491,147.274 21.418,146.945C20.95,144.839 20.687,142.228 20.626,140.016C20.582,138.468 20.639,137.114 20.782,136.258C20.844,135.891 20.932,135.602 21.029,135.4C21.03,135.393 21.031,135.385 21.032,135.378C20.992,135.138 20.963,134.778 20.957,134.328C20.942,133.208 21.006,131.458 21.192,129.654C21.252,129.073 21.329,128.489 21.417,127.917C21.51,127.319 21.616,126.738 21.735,126.193C21.928,125.313 22.151,124.537 22.378,123.939C22.39,123.896 22.436,123.871 22.479,123.884C22.523,123.897 22.548,123.943 22.535,123.986C22.413,124.546 22.33,125.25 22.254,126.04C22.192,126.688 22.142,127.388 22.093,128.108C22.031,129.026 21.975,129.972 21.935,130.869C21.88,132.09 21.848,133.22 21.861,134.059C24.051,131.053 26.591,129.924 28.722,130.252C31.056,130.613 33.006,132.719 33.581,136.249C34.839,133.663 36.702,131.856 38.949,131.852C40.32,131.849 41.87,132.513 43.538,134.154C43.563,132.733 43.379,130.08 43.034,127.455C42.905,126.479 42.76,125.507 42.587,124.602C42.433,123.791 42.263,123.037 42.065,122.381C41.791,121.477 41.479,120.766 41.081,120.38C41.046,120.35 41.042,120.298 41.072,120.264C41.101,120.23 41.153,120.226 41.187,120.255C41.682,120.627 42.148,121.378 42.553,122.371C42.966,123.382 43.318,124.639 43.601,125.97C43.717,126.513 43.815,127.068 43.903,127.624C44.324,130.303 44.489,132.979 44.463,134.335C44.455,134.727 44.424,135.023 44.384,135.202C44.798,136.038 44.934,137.203 44.894,138.561C44.826,140.892 44.263,143.818 44.013,146.494C43.952,147.141 43.984,147.782 44.063,148.407C44.191,149.422 44.442,150.395 44.641,151.284C45.445,150.857 46.187,150.43 46.841,150.002C46.957,149.927 47.098,149.903 47.232,149.935C47.367,149.968 47.481,150.054 47.549,150.174C47.838,150.681 48.325,151.095 49.043,151.415C49.193,150.244 49.102,148.975 48.996,147.719C48.864,146.164 48.708,144.627 48.884,143.294C50.607,130.244 50.614,119.843 43.543,112.202C41.548,112.558 39.428,112.649 37.203,112.443C32.111,111.971 27.31,111.054 23.212,109.426ZM33.229,143.257C33.094,144.039 32.947,144.883 32.806,145.826C32.622,147.051 32.902,148.281 33.278,149.454C33.385,149.789 33.5,150.119 33.616,150.443C33.748,149.637 33.86,148.839 33.81,148.12C33.69,146.385 33.44,144.754 33.229,143.257ZM31.644,63.174C38.788,62.283 45.613,65.617 51.281,70.193C56.911,74.739 60.803,80.499 60.882,87.262C61.049,101.514 51.4,112.755 37.295,111.447C23.877,110.203 12.434,105.918 11.392,92.994C11.179,90.357 12.814,86.083 13.942,82.141C16.368,73.671 20.933,64.512 31.644,63.174ZM24.318,96.298C25.82,96.298 27.501,98.47 27.501,99.757C27.501,101.045 25.718,102.091 24.215,102.091C22.713,102.091 21.135,100.636 21.135,99.348C21.135,98.06 22.815,96.298 24.318,96.298ZM50.211,86.887C53.159,86.951 55.724,89.499 55.578,92.554C55.429,95.678 52.981,98.374 50.16,98.374C47.339,98.374 44.844,95.835 44.844,92.707C44.844,89.58 47.391,86.826 50.211,86.887ZM34.399,84.617C34.438,84.624 34.48,84.632 34.525,84.641C34.697,84.675 34.91,84.724 35.153,84.779C35.473,84.851 35.828,84.938 36.213,85.013C36.522,85.073 36.826,85.133 37.142,85.17C37.147,85.17 37.151,85.174 37.151,85.178C37.151,85.183 37.148,85.187 37.143,85.187C36.608,85.311 36.067,85.394 35.563,85.427C35.198,85.45 34.87,85.449 34.603,85.432C34.217,85.407 33.976,85.351 33.976,85.351C33.789,85.322 33.649,85.165 33.641,84.976C33.641,84.976 33.633,84.757 33.654,84.431C33.669,84.195 33.696,83.911 33.743,83.608C33.818,83.128 33.935,82.641 34.062,82.259C34.063,82.255 34.067,82.251 34.072,82.252C34.076,82.253 34.08,82.257 34.079,82.261C34.088,82.43 34.112,82.607 34.136,82.805C34.18,83.16 34.244,83.529 34.298,83.875C34.328,84.07 34.354,84.25 34.373,84.407L34.399,84.617ZM27.017,69.761C29.305,70.028 30.598,71.47 30.406,73.623C30.213,75.79 28.325,78.459 26.3,78.305C25.555,78.249 24.324,78.155 23.663,77.692C22.669,76.996 22.384,75.723 22.348,74.545C22.272,72.048 25.055,69.531 27.017,69.761Z"/>
        <path d="M79.929,117.242C79.293,117.104 78.691,116.951 78.134,116.78C73.884,115.48 70.647,113.513 68.465,110.662C66.283,107.811 65.149,104.069 65.149,99.189C65.149,85.194 77.737,70.789 92.182,70.789C106.64,70.789 116.946,81.194 118.213,95.144C118.941,103.149 116.296,109.473 111.511,113.589C109.201,115.575 106.388,117.048 103.205,117.942C109.904,126.838 111.248,135.813 105.583,143.038C107.404,143.203 108.87,144.017 109.869,145.507C110.939,147.103 110.793,148.816 109.825,150.487C108.487,152.794 105.508,155.03 102.238,156.667C95.338,160.12 85.619,159.822 85.619,159.822C85.453,159.816 85.3,159.729 85.212,159.589C85.123,159.448 85.11,159.273 85.177,159.121C85.177,159.121 85.719,157.887 86.765,156.126C86.238,156.207 85.62,156.253 84.943,156.269C82.148,156.337 78.3,155.932 76.014,155.694C70.143,155.081 67.153,152.286 68.173,148.463C68.889,145.783 70.273,143.659 72.362,142.877C68.322,133.392 70.775,124.459 79.929,117.242ZM86.422,158.829C88.809,158.819 96.24,158.55 101.79,155.773C104.87,154.232 107.7,152.158 108.959,149.985C109.722,148.67 109.881,147.321 109.039,146.064C107.947,144.436 106.172,143.815 103.96,144.059C101.6,144.319 98.767,145.541 95.691,147.604C90.61,151.011 87.412,156.834 86.422,158.829ZM79.277,145.266C78.593,144.943 77.961,144.645 77.414,144.383C75.559,143.493 74.031,143.352 72.795,143.784C70.93,144.436 69.771,146.356 69.139,148.721C68.26,152.014 71.06,154.172 76.117,154.699C78.371,154.934 82.164,155.337 84.919,155.27C86.023,155.243 86.952,155.149 87.514,154.917C88.214,153.831 89.068,152.631 90.067,151.437C90.059,151.419 90.052,151.401 90.046,151.381C90.002,151.244 89.863,151.098 89.675,150.923C89.292,150.564 88.708,150.157 87.997,149.719C85.784,148.355 82.371,146.726 79.653,145.443C79.591,145.424 79.532,145.405 79.474,145.386C79.397,145.361 79.331,145.319 79.277,145.266ZM81.234,117.5L81.229,117.504C71.914,124.503 69.313,133.247 73.315,142.562C73.323,142.581 73.33,142.6 73.335,142.62C74.605,142.414 76.104,142.646 77.846,143.481C78.471,143.781 79.206,144.127 80.003,144.503C80.552,144.665 81.258,144.819 81.875,144.866C82.161,144.888 82.425,144.888 82.636,144.845C82.691,144.834 82.762,144.806 82.799,144.791C82.787,144.746 82.76,144.657 82.723,144.587C82.538,144.236 82.237,143.908 81.856,143.543C80.828,142.561 79.25,141.368 77.476,139.195C77.401,139.103 77.359,138.988 77.359,138.868C77.356,137 77.474,135.243 77.721,133.601C77.836,132.833 77.972,132.089 78.148,131.374C78.27,130.875 78.408,130.391 78.564,129.921C78.671,129.597 78.787,129.283 78.91,128.974C79.004,128.736 79.099,128.505 79.202,128.277C79.451,127.728 79.719,127.214 79.997,126.708C80.013,126.67 80.057,126.651 80.096,126.667C80.134,126.683 80.152,126.727 80.137,126.766C79.969,127.351 79.834,127.949 79.691,128.571C79.556,129.157 79.428,129.754 79.305,130.372C79.211,130.844 79.119,131.323 79.031,131.813C78.905,132.516 78.785,133.238 78.691,133.985C78.505,135.459 78.397,137.023 78.4,138.679C80.087,140.72 81.589,141.855 82.57,142.799C83.043,143.254 83.403,143.673 83.631,144.111C83.872,144.573 83.864,144.931 83.757,145.191C83.625,145.511 83.311,145.751 82.834,145.845L82.819,145.847C84.878,146.847 86.986,147.921 88.521,148.867C89.301,149.348 89.938,149.799 90.358,150.192C90.523,150.346 90.657,150.495 90.761,150.637C91.215,150.132 91.695,149.633 92.201,149.149C91.919,148.891 91.79,148.614 91.739,148.341C91.664,147.941 91.786,147.522 91.923,147.123C92.2,146.324 92.686,145.59 93.313,144.875C94.284,143.767 95.599,142.698 96.931,141.461C98.016,140.452 99.114,139.328 100.02,137.953C100.14,137.105 100.215,136.336 100.271,135.626C100.319,135.015 100.346,134.448 100.37,133.911C100.388,133.512 100.407,133.133 100.421,132.763C100.436,132.364 100.447,131.983 100.461,131.605C100.483,131.006 100.515,130.438 100.541,129.851C100.537,129.809 100.568,129.773 100.61,129.77C100.651,129.767 100.687,129.798 100.691,129.839C100.826,130.525 100.973,131.186 101.087,131.899C101.141,132.239 101.184,132.584 101.219,132.945C101.252,133.284 101.276,133.633 101.288,133.999C101.306,134.529 101.296,135.089 101.266,135.69C101.228,136.456 101.144,137.287 101.023,138.21C101.012,138.284 100.986,138.355 100.945,138.418C99.982,139.914 98.81,141.138 97.64,142.224C96.336,143.436 95.038,144.471 94.083,145.553C93.547,146.16 93.12,146.778 92.881,147.457C92.799,147.689 92.687,147.926 92.729,148.159C92.749,148.27 92.819,148.369 92.945,148.466C93.633,147.861 94.362,147.29 95.134,146.773C98.373,144.601 101.366,143.339 103.85,143.065C104.009,143.047 104.167,143.034 104.322,143.024C104.339,142.989 104.361,142.955 104.388,142.923C110.324,135.872 108.904,126.996 102.155,118.213C99.041,118.947 95.604,119.145 91.962,118.753C88.668,118.398 84.621,118.106 81.234,117.5ZM92.182,71.789C106.093,71.789 115.998,81.812 117.218,95.235C117.911,102.866 115.421,108.907 110.859,112.83C106.278,116.77 99.63,118.573 92.069,117.759C87.742,117.293 82.099,116.947 78.426,115.824C74.403,114.593 71.324,112.753 69.259,110.055C67.194,107.356 66.149,103.807 66.149,99.189C66.149,85.699 78.258,71.789 92.182,71.789ZM93.413,108.212C95.743,108.265 97.206,108.487 97.206,109.414C97.206,110.342 95.79,111.348 93.229,111.336C90.851,111.325 89.632,110.344 89.632,109.417C89.632,108.49 90.806,108.152 93.413,108.212ZM107.789,94.536C109.511,94.536 111.582,95.699 111.309,98.816C110.909,103.385 108.711,105.896 106.109,105.896C104.387,105.896 102.749,104.345 103.389,99.456C103.65,97.464 106.067,94.536 107.789,94.536ZM77.389,91.336C79.351,91.256 80.589,93.767 80.589,95.776C80.589,97.785 78.711,99.896 75.789,99.736C74.07,99.642 73.309,97.865 73.309,95.856C73.309,93.847 74.709,91.445 77.389,91.336ZM94.2,96.573C95.632,96.691 96.629,96.208 96.629,96.208C96.629,96.208 96.23,97.57 94.098,97.58C92.447,97.587 91.824,95.804 91.824,95.804C91.824,95.804 92.614,96.443 94.2,96.573Z"/>
        <path d="M137.573,76.705C137.548,76.693 137.523,76.681 137.498,76.669C130.583,73.355 121.854,66.913 116.348,59.186C112.635,53.975 110.39,48.18 111.086,42.363C112.429,31.139 119.769,22.686 127.647,18.021C132.931,14.891 138.457,13.473 142.582,14.027C145.975,14.483 148.732,14.505 151.515,15.84C162.127,20.932 169.302,29.291 169.948,41.062C170.249,46.548 167.806,52.67 167.725,58.123C167.696,60.086 168.411,61.938 168.942,63.67C169.527,65.581 169.879,67.36 169.08,68.994C166.286,74.701 159.88,77.824 153.068,78.727C160.834,86.301 166.15,97 167.432,106.628C168.323,113.315 167.264,119.487 163.787,123.784C163.753,123.826 163.711,123.863 163.665,123.892C162.335,124.729 161.384,124.948 160.514,124.917C160.488,134.075 160.056,142.172 157.92,147.564C156.408,151.381 154.047,153.872 150.446,154.545C150.391,154.555 150.335,154.556 150.28,154.548C148.957,154.349 147.919,153.85 147.214,152.947C146.529,152.069 146.152,150.787 146.199,148.957C146.286,145.52 146.409,140.743 145.913,137.025C145.72,135.582 145.436,134.302 145.011,133.336C144.961,133.224 144.91,133.116 144.857,133.013C144.68,139.549 143.967,144.578 142.613,148.286C141.119,152.376 138.844,154.889 135.676,156.085C135.537,156.138 135.38,156.125 135.251,156.051C133.868,155.257 132.854,153.887 132.188,151.805C131.557,149.831 131.234,147.195 131.176,143.789C131.063,137.166 130.958,128.809 130.888,120.173C130.654,120.986 130.372,121.822 130.039,122.579C129.618,123.538 129.11,124.371 128.524,124.903C127.838,125.526 127.048,125.773 126.15,125.465C125.655,125.294 125.177,124.894 124.749,124.268C124.192,123.453 123.699,122.233 123.298,120.713C121.794,115.004 121.535,104.942 123.378,96.762C125.627,86.776 131.809,81.575 137.573,76.705ZM138.59,77.155C132.869,81.99 126.592,87.04 124.353,96.982C122.547,105 122.79,114.862 124.265,120.458C124.63,121.844 125.067,122.961 125.574,123.703C125.857,124.116 126.149,124.407 126.475,124.519C127.154,124.753 127.709,124.396 128.19,123.8C128.786,123.06 129.26,121.961 129.639,120.827C130.354,118.692 130.725,116.428 130.844,115.979C130.856,115.932 130.871,115.89 130.889,115.853C132.108,112.25 133.118,108.977 133.942,106.027C134.427,104.288 134.842,102.661 135.202,101.146C135.374,100.419 135.525,99.716 135.684,99.043C135.757,98.737 135.833,98.438 135.912,98.145C135.995,97.838 136.081,97.544 136.17,97.251C136.295,96.836 136.426,96.451 136.544,96.058C136.549,96.019 136.586,95.992 136.625,95.997C136.664,96.003 136.692,96.039 136.686,96.079C136.691,96.475 136.7,96.868 136.686,97.287C136.677,97.551 136.658,97.815 136.635,98.087C136.614,98.35 136.588,98.614 136.553,98.883C136.53,99.058 136.502,99.233 136.471,99.41C136.209,100.915 135.836,102.534 135.399,104.277C134.53,107.736 133.34,111.67 131.858,116.105C131.925,126.146 132.046,136.117 132.176,143.772C132.231,147.055 132.532,149.598 133.141,151.5C133.682,153.193 134.461,154.359 135.548,155.061C138.345,153.927 140.334,151.61 141.673,147.943C143.093,144.055 143.779,138.68 143.886,131.604C143.889,131.415 143.999,131.243 144.169,131.161C144.34,131.079 144.542,131.1 144.692,131.215C145.571,131.893 146.199,133.279 146.592,135.081C147.445,138.988 147.302,144.911 147.198,148.982C147.159,150.514 147.429,151.597 148.002,152.332C148.541,153.022 149.344,153.383 150.345,153.546C153.559,152.914 155.632,150.623 156.99,147.196C159.134,141.786 159.504,133.607 159.515,124.38C159.265,119.078 158.725,114.283 157.948,109.925C157.511,107.471 156.993,105.157 156.416,102.967C156.151,101.962 155.864,100.987 155.587,100.029C155.465,99.605 155.346,99.186 155.231,98.768C155.114,98.341 155.002,97.92 154.892,97.499C154.74,96.921 154.603,96.357 154.448,95.795C154.434,95.758 154.452,95.716 154.489,95.702C154.525,95.687 154.567,95.705 154.582,95.742C154.844,96.241 155.106,96.736 155.352,97.257C155.513,97.596 155.662,97.94 155.81,98.292C155.955,98.637 156.096,98.986 156.229,99.342C156.317,99.577 156.399,99.814 156.479,100.054C157.189,102.184 157.789,104.458 158.319,106.869C159.424,111.893 160.156,117.54 160.492,123.913C161.206,123.944 161.977,123.76 163.062,123.089C166.341,118.989 167.287,113.112 166.441,106.76C165.153,97.087 159.701,86.314 151.773,78.872C151.138,78.93 150.501,78.969 149.865,78.989C146.605,79.094 142.556,78.791 138.59,77.155ZM139.116,76.29C142.89,77.815 146.733,78.089 149.833,77.99C157.386,77.747 165.105,74.839 168.182,68.554C168.871,67.145 168.491,65.612 167.986,63.963C167.426,62.136 166.694,60.179 166.725,58.108C166.805,52.677 169.249,46.581 168.95,41.117C168.325,29.729 161.349,21.668 151.083,16.742C148.394,15.452 145.726,15.459 142.449,15.018C138.499,14.488 133.217,15.884 128.156,18.881C120.516,23.406 113.381,31.595 112.079,42.482C111.411,48.061 113.601,53.608 117.162,58.606C122.568,66.193 131.141,72.514 137.93,75.767C138.098,75.848 138.266,75.925 138.434,76C138.633,75.908 138.876,75.956 139.025,76.131C139.066,76.179 139.096,76.233 139.116,76.29ZM151.533,69.064C152.906,69.064 154.901,69.989 154.901,71.424C154.901,72.859 152.906,75.144 149.773,75.064C148.4,75.029 147.925,74.059 147.925,72.624C147.925,71.189 150.16,69.064 151.533,69.064ZM126.413,43.384C129.476,43.384 131.963,45.982 131.963,49.184C131.963,52.385 129.476,54.984 126.413,54.984C123.35,54.984 120.863,52.385 120.863,49.184C120.863,45.982 123.35,43.384 126.413,43.384ZM142.525,47.228C143.958,45.967 144.517,44.847 144.517,44.847C144.517,44.847 144.512,47.07 143.248,48.074C141.132,49.753 139.578,49.261 139.578,49.261C139.578,49.261 141.277,48.326 142.525,47.228ZM153.014,28.897C156.838,28.812 159.065,31.864 159.572,35.024C160.08,38.185 157.956,40.905 154.932,41.39C151.908,41.876 148.764,39.24 148.373,36.063C147.866,31.942 149.952,28.965 153.014,28.897Z"/>
    </g>
</svg>
