<?xml version="1.0" encoding="UTF-8" standalone="no"?>
<!DOCTYPE svg PUBLIC "-//W3C//DTD SVG 1.1//EN" "http://www.w3.org/Graphics/SVG/1.1/DTD/svg11.dtd">
<svg width="100%" height="100%" viewBox="0 0 300 145" version="1.1" xmlns="http://www.w3.org/2000/svg" xmlns:xlink="http://www.w3.org/1999/xlink" xml:space="preserve" xmlns:serif="http://www.serif.com/" style="fill-rule:evenodd;clip-rule:evenodd;stroke-linejoin:round;stroke-miterlimit:2;">
    <g id="layer1" transform="matrix(1,0,0,1,35.7143,-371.619)">
        <g id="Logo" transform="matrix(6.12292,0,0,-6.12292,-3212.3,795.828)" fill="#fff">
            <g id="g6333" transform="matrix(1,0,0,1,538.487,48.8839)">
                <path id="path6335" d="M0,0C-0.114,0.205 -0.261,0.31 -0.494,0.31C-0.739,0.31 -1.008,0.131 -1.008,-0.158C-1.008,-0.415 -0.772,-0.55 -0.58,-0.628L-0.36,-0.721C0.078,-0.903 0.404,-1.161 0.404,-1.711C0.404,-2.309 -0.028,-2.738 -0.58,-2.738C-1.077,-2.738 -1.465,-2.345 -1.531,-1.816L-1.143,-1.729C-1.147,-2.091 -0.878,-2.353 -0.547,-2.353C-0.216,-2.353 0.02,-2.056 0.02,-1.711C0.02,-1.357 -0.245,-1.205 -0.51,-1.087L-0.722,-0.991C-1.073,-0.83 -1.393,-0.616 -1.393,-0.158C-1.393,0.375 -0.951,0.694 -0.486,0.694C-0.143,0.694 0.139,0.515 0.306,0.196L0,0Z" style="fill-rule:nonzero;"/>
            </g>
            <g id="g6337" transform="matrix(1,0,0,1,540.141,46.2165)">
                <path id="path6339" d="M0,0L-0.384,0L-0.384,2.916L-1.114,2.916L-1.114,3.292L0.731,3.292L0.731,2.916L0,2.916L0,0Z" style="fill-rule:nonzero;"/>
            </g>
            <g id="g6341" transform="matrix(1,0,0,1,541.505,49.5081)">
                <path id="path6343" d="M0,0L0,-1.942C0,-2.48 0.151,-2.977 0.743,-2.977C1.335,-2.977 1.486,-2.48 1.486,-1.942L1.486,0L1.87,0L1.87,-2.082C1.87,-2.807 1.449,-3.362 0.743,-3.362C0.037,-3.362 -0.384,-2.807 -0.384,-2.082L-0.384,0L0,0Z" style="fill-rule:nonzero;"/>
            </g>
            <g id="g6345" transform="matrix(1,0,0,1,544.258,46.5919)">
                <path id="path6347" d="M0,0L0.135,0C0.918,0 1.596,0.314 1.596,1.27C1.596,2.231 0.918,2.541 0.135,2.541L0,2.541L0,0ZM-0.384,2.916L0.253,2.916C1.197,2.916 1.98,2.384 1.98,1.288C1.98,0.166 1.212,-0.375 0.24,-0.375L-0.384,-0.375L-0.384,2.916Z" style="fill-rule:nonzero;"/>
            </g>
            <rect id="path6349" x="546.61" y="46.216" width="0.384" height="3.292" style="fill-rule:nonzero;"/>
            <g id="g6351" transform="matrix(1,0,0,1,550.194,47.8624)">
                <path id="path6353" d="M0,0C0,0.725 -0.506,1.332 -1.229,1.332C-1.951,1.332 -2.457,0.725 -2.457,0C-2.457,-0.751 -1.894,-1.332 -1.229,-1.332C-0.563,-1.332 0,-0.751 0,0M0.384,0C0.384,-0.978 -0.338,-1.715 -1.229,-1.715C-2.119,-1.715 -2.841,-0.978 -2.841,0C-2.841,0.943 -2.11,1.715 -1.229,1.715C-0.347,1.715 0.384,0.943 0.384,0" style="fill-rule:nonzero;"/>
            </g>
            <g id="g6355" transform="matrix(1,0,0,1,554.935,47.8754)">
                <path id="path6357" d="M0,0L0,-0.131C0,-1.035 -0.596,-1.729 -1.457,-1.729C-2.319,-1.729 -3.013,-0.934 -3.013,-0.022C-3.013,0.925 -2.302,1.703 -1.417,1.703C-0.939,1.703 -0.465,1.472 -0.163,1.065L-0.432,0.79C-0.653,1.113 -1.025,1.327 -1.4,1.327C-2.09,1.327 -2.629,0.729 -2.629,-0.008C-2.629,-0.699 -2.098,-1.353 -1.433,-1.353C-0.955,-1.353 -0.441,-0.913 -0.425,-0.375L-1.221,-0.375L-1.221,0L0,0Z" style="fill-rule:nonzero;"/>
            </g>
            <g id="g6359" transform="matrix(1,0,0,1,557.132,48.1811)">
                <path id="path6361" d="M0,0L0,1.327L0.384,1.327L0.384,-1.964L0,-1.964L0,-0.385L-1.465,-0.385L-1.465,-1.964L-1.849,-1.964L-1.849,1.327L-1.465,1.327L-1.465,0L0,0Z" style="fill-rule:nonzero;"/>
            </g>
            <rect id="path6363" x="558.06" y="46.216" width="0.384" height="3.292" style="fill-rule:nonzero;"/>
            <g id="g6365" transform="matrix(1,0,0,1,559.37,46.5833)">
                <path id="path6367" d="M0,0L0.294,0C0.649,0 1.02,0.113 1.02,0.581C1.02,1.043 0.58,1.14 0.237,1.14L0,1.14L0,0ZM0,1.466L0.098,1.466C0.462,1.466 0.759,1.545 0.759,2.017C0.759,2.48 0.465,2.558 0.106,2.558L0,2.558L0,1.466ZM-0.384,2.925L-0.008,2.925C0.571,2.925 1.118,2.764 1.118,2.021C1.118,1.782 0.996,1.502 0.787,1.397L0.787,1.389C1.151,1.318 1.404,0.939 1.404,0.555C1.404,-0.105 0.878,-0.367 0.335,-0.367L-0.384,-0.367L-0.384,2.925Z" style="fill-rule:nonzero;"/>
            </g>
            <g id="g6369" transform="matrix(1,0,0,1,561.588,46.5919)">
                <path id="path6371" d="M0,0L0.935,0L0.935,-0.375L-0.384,-0.375L-0.384,2.916L0,2.916L0,0Z" style="fill-rule:nonzero;"/>
            </g>
            <rect id="path6373" x="562.762" y="46.216" width="0.384" height="3.292" style="fill-rule:nonzero;"/>
            <g id="g6375" transform="matrix(1,0,0,1,532.72,51.7017)">
                <path id="path6377" d="M0,0C0.946,0.371 2.005,1.383 2.472,2.749L0.244,2.749L0.244,3.248L3.123,3.248C3.067,2.992 2.909,2.236 2.3,1.347C2.553,1.131 3.179,0.587 3.749,-0.013L3.345,-0.449C3.17,-0.229 2.858,0.161 2.009,0.953C1.71,0.587 1.114,-0.074 0.296,-0.43L0,0Z" style="fill-rule:nonzero;"/>
            </g>
            <g id="g6379" transform="matrix(1,0,0,1,537.955,53.5848)">
                <path id="path6381" d="M0,0C0.184,-0.083 0.544,-0.248 0.994,-0.65C1.371,-0.133 1.469,0.358 1.508,0.545L0.009,0.545C-0.416,-0.083 -0.78,-0.353 -1.118,-0.563L-1.439,-0.178C-0.69,0.239 -0.3,0.792 -0.005,1.613L0.514,1.508C0.432,1.315 0.381,1.196 0.287,1.021L2.112,1.021C2,0.303 1.632,-1.8 -0.895,-2.429L-1.169,-1.975C-0.879,-1.924 -0.15,-1.796 0.651,-1.04C0.223,-0.637 -0.167,-0.44 -0.335,-0.353L0,0Z" style="fill-rule:nonzero;"/>
            </g>
            <g id="g6383" transform="matrix(1,0,0,1,540.393,51.853)">
                <path id="path6385" d="M0,0C1.615,0.142 2.348,0.665 2.904,2.492L3.368,2.272C2.785,0.536 2.061,-0.316 0.12,-0.55L0,0ZM3.217,2.744C3.119,3.157 3.037,3.344 2.994,3.445L3.342,3.528C3.462,3.263 3.543,2.96 3.573,2.85L3.217,2.744ZM2.592,2.648C2.532,2.96 2.477,3.143 2.39,3.386L2.742,3.468C2.849,3.193 2.888,3.074 2.96,2.74L2.592,2.648ZM0.96,1.131C0.463,1.421 -0.034,1.594 -0.244,1.663L-0.048,2.139C0.112,2.09 0.75,1.887 1.157,1.649L0.96,1.131ZM1.29,2.194C0.865,2.424 0.463,2.579 0.094,2.694L0.3,3.175C0.946,2.969 1.268,2.813 1.508,2.694L1.29,2.194Z" style="fill-rule:nonzero;"/>
            </g>
            <g id="g6387" transform="matrix(1,0,0,1,548.247,51.853)">
                <path id="path6389" d="M0,0C1.615,0.142 2.348,0.665 2.904,2.492L3.368,2.272C2.785,0.536 2.061,-0.316 0.12,-0.55L0,0ZM3.217,2.744C3.119,3.157 3.037,3.344 2.994,3.445L3.342,3.528C3.462,3.263 3.543,2.96 3.573,2.85L3.217,2.744ZM2.592,2.648C2.532,2.96 2.477,3.143 2.39,3.386L2.742,3.468C2.849,3.193 2.888,3.074 2.96,2.74L2.592,2.648ZM0.96,1.131C0.463,1.421 -0.034,1.594 -0.244,1.663L-0.048,2.139C0.112,2.09 0.75,1.887 1.157,1.649L0.96,1.131ZM1.29,2.194C0.866,2.424 0.463,2.579 0.094,2.694L0.3,3.175C0.947,2.969 1.268,2.813 1.508,2.694L1.29,2.194Z" style="fill-rule:nonzero;"/>
            </g>
            <g id="g6391" transform="matrix(1,0,0,1,555.505,54.721)">
                <path id="path6393" d="M0,0C-0.03,0.184 -0.112,0.491 -0.184,0.665L0.167,0.733C0.248,0.508 0.287,0.371 0.347,0.087L0,0ZM-0.45,0.697C-0.372,0.504 -0.33,0.348 -0.27,0.059L-0.399,0.041L-0.399,0.032L-0.142,0.032C-0.214,-1.961 -1.152,-3.092 -2.759,-3.46L-3.029,-2.969C-2.339,-2.827 -0.921,-2.524 -0.69,-0.463L-3.402,-0.463L-3.402,0.032L-0.656,0.032C-0.694,0.261 -0.733,0.398 -0.818,0.633L-0.45,0.697Z" style="fill-rule:nonzero;"/>
            </g>
            <g id="g6395" transform="matrix(1,0,0,1,558.954,53.3465)">
                <path id="path6397" d="M0,0C0,-0.72 -0.124,-1.283 -0.622,-1.686C-1.011,-2.003 -1.41,-2.084 -2.275,-2.185L-2.433,-1.681C-1.336,-1.608 -0.505,-1.425 -0.505,-0.243L-0.505,1.741L0,1.741L0,0ZM-2.163,-0.83L-2.659,-0.83L-2.659,1.658L-2.163,1.658L-2.163,-0.83Z" style="fill-rule:nonzero;"/>
            </g>
            <g id="g6399" transform="matrix(1,0,0,1,561.713,55.3074)">
                <path id="path6401" d="M0,0C-0.034,-0.151 -0.073,-0.316 -0.176,-0.582L1.671,-0.582L1.671,-1.035L0.248,-1.035L0.248,-1.686L1.564,-1.686L1.564,-2.139L0.248,-2.139L0.248,-2.795L1.564,-2.795L1.564,-3.244L0.248,-3.244L0.248,-4.271L-0.214,-4.271L-0.214,-1.035L-0.377,-1.035C-0.664,-1.599 -0.895,-1.86 -1.028,-2.016L-1.32,-1.626C-0.852,-1.141 -0.578,-0.413 -0.475,0.055L0,0ZM-1.846,-1.865L-1.855,-1.865C-2,-2.067 -2.117,-2.181 -2.232,-2.291L-2.429,-1.838C-1.954,-1.361 -1.667,-0.839 -1.478,0.051L-1.024,-0.032C-1.084,-0.252 -1.182,-0.633 -1.393,-1.086L-1.393,-4.271L-1.846,-4.271L-1.846,-1.865Z" style="fill-rule:nonzero;"/>
            </g>
            <path id="path6403" d="M564.604,54.011L566.695,54.011L566.695,54.79L564.604,54.79L564.604,54.011ZM564.181,55.22L567.111,55.22L567.111,53.579L564.181,53.579L564.181,55.22ZM566.184,51.701L567.096,51.701L567.096,52.787L566.184,52.787L566.184,51.701ZM563.772,53.209L565.438,53.209L565.438,51.087L565.027,51.087L565.027,51.275L564.181,51.275L564.181,51.055L563.772,51.055L563.772,53.209ZM564.181,51.701L565.03,51.701L565.03,52.787L564.181,52.787L564.181,51.701ZM565.77,53.209L567.509,53.209L567.509,51.055L567.098,51.055L567.098,51.275L566.184,51.275L566.184,51.055L565.77,51.055L565.77,53.209Z" style="fill-rule:nonzero;"/>
            <g id="g6405" transform="matrix(1,0,0,1,544.166,51.9829)">
                <path id="path6407" d="M0,0C1.295,0.941 1.732,1.792 1.8,1.937L-0.023,1.939L-0.023,2.443L2.095,2.443L2.095,3.21L2.572,3.21L2.572,2.443L3.543,2.443L3.543,1.927L2.576,1.927L2.577,-0.757L2.095,-0.757L2.096,1.525C2.096,1.525 1.709,0.59 0.281,-0.435L0,0Z" style="fill-rule:nonzero;"/>
            </g>
            <g id="g6409" transform="matrix(1,0,0,1,532.58,50.4028)">
                <path id="path6411" d="M0,0L35.219,0" style="fill:none;fill-rule:nonzero;"/>
            </g>
            <g id="g6413" transform="matrix(1,0,0,1,532.58,50.4318)">
                <path id="path6415" d="M0,0L35.219,0L35.219,-0.058L0,-0.058" style="fill-rule:nonzero;"/>
            </g>
        </g>
        <g id="Totoro" transform="matrix(6.12292,0,0,-6.12292,-3212.3,795.828)">
            <g id="path6419" transform="matrix(1,0,0,1,532.967,62.3165)">
                <path d="M0,0L0,-0.047L-0.076,-0.073L-0.284,-0.068L-0.492,-0.077L-0.503,-0.056L-0.407,0.004C-0.268,-0.022 -0.147,0.047 -0.02,0.012L0,0Z" style="fill-rule:nonzero;"/>
            </g>
            <g id="path6423" transform="matrix(1,0,0,1,527.964,57.6761)">
                <path d="M0,0L-0.036,-0.043L-0.104,-0.133L-0.152,-0.188L-0.296,-0.304L-0.443,-0.401C-0.539,-0.487 -0.671,-0.552 -0.827,-0.577L-1.015,-0.598C-1.123,-0.586 -1.242,-0.586 -1.33,-0.538L-1.426,-0.508C-1.553,-0.442 -1.602,-0.394 -1.65,-0.256L-1.654,-0.222L-1.662,-0.222L-1.67,-0.115L-1.682,-0.085L-1.702,0.149L-1.702,0.184L-1.698,0.184L-1.694,0.355L-1.679,0.389L-1.662,0.423L-1.654,0.423L-1.65,0.478L-1.647,0.478L-1.634,0.522L-1.634,0.679L-1.618,0.709L-1.611,0.748L-1.602,0.816L-1.594,0.816L-1.59,0.855L-1.586,0.855L-1.574,0.893L-1.574,0.919L-1.566,0.919L-1.558,0.965L-1.551,0.965L-1.478,1.102L-1.434,1.158C-1.338,1.217 -1.255,1.304 -1.103,1.312L-0.927,1.372C-0.831,1.367 -0.743,1.342 -0.647,1.324L-0.447,1.227L-0.328,1.098L-0.32,1.098L-0.311,1.072L-0.304,1.072L-0.268,1.004C-0.111,0.698 -0.041,0.504 -0.012,0.149L-0.008,0.111L0,0.111L0,0ZM0.303,-0.008L0.196,0.051L0.164,0.077L0.14,0.099L0.124,0.167L0.115,0.167L0.104,0.355L0.1,0.355L0.092,0.405L0.079,0.483L0.064,0.607L0.056,0.607L0.044,0.667L0.04,0.667L0.024,0.718L0.008,0.778L-0.024,0.872L-0.032,0.872L-0.051,0.923C-0.202,1.292 -0.286,1.374 -0.671,1.469L-0.791,1.508C-0.919,1.513 -1.059,1.508 -1.174,1.465C-1.266,1.475 -1.315,1.423 -1.378,1.389L-1.534,1.278L-1.579,1.209L-1.59,1.175L-1.638,1.111L-1.662,1.081L-1.674,1.034L-1.679,1.034L-1.698,0.996L-1.698,0.983L-1.71,0.94L-1.714,0.94L-1.726,0.876L-1.734,0.876L-1.734,0.855L-1.742,0.778L-1.75,0.778L-1.758,0.679L-1.766,0.679L-1.778,0.624L-1.782,0.624L-1.794,0.552L-1.798,0.552L-1.802,0.5L-1.81,0.5L-1.81,0.457L-1.818,0.457L-1.81,0.385L-1.89,0.252L-1.894,0.252L-1.89,0.209L-1.886,0.197L-1.81,0.099L-1.818,0.099L-1.818,0.068L-1.822,-0.038L-1.81,-0.103L-1.798,-0.171L-1.794,-0.192L-1.786,-0.192L-1.782,-0.231L-1.766,-0.282L-1.75,-0.316L-1.686,-0.411L-1.551,-0.538L-1.423,-0.641C-1.291,-0.675 -1.167,-0.756 -1.007,-0.718C-0.915,-0.705 -0.799,-0.709 -0.739,-0.649L-0.627,-0.628L-0.539,-0.603L-0.352,-0.504L-0.22,-0.405C-0.128,-0.355 -0.084,-0.27 -0.008,-0.209L0.064,-0.119L0.092,-0.094L0.256,-0.073L0.303,-0.008" style="fill-rule:nonzero;"/>
            </g>
            <g id="path6427" transform="matrix(1,0,0,1,524.652,58.8383)">
                <path d="M0,0L0.012,-0.004L0.008,-0.004L0.008,-0.012L0.004,-0.012L-0.024,-0.119L-0.032,-0.119L-0.044,-0.184L-0.048,-0.184L-0.06,-0.264L-0.064,-0.264L-0.072,-0.312L-0.084,-0.385L-0.092,-0.385L-0.092,-0.423L-0.1,-0.423L-0.128,-0.479L-0.176,-0.449L-0.179,-0.415L-0.172,-0.415L-0.164,-0.295L-0.156,-0.295L-0.144,-0.24L-0.14,-0.24L-0.136,-0.192L-0.128,-0.192L-0.12,-0.129L-0.112,-0.129L-0.084,-0.038L-0.068,-0.012L-0.068,0.004L-0.06,0.012L-0.024,0.038L0,0Z" style="fill-rule:nonzero;"/>
            </g>
            <g id="path6431" transform="matrix(1,0,0,1,524.748,58.5649)">
                <path d="M0,0L0.004,-0.018L0.012,-0.06L0.004,-0.06L-0.008,-0.129L-0.076,-0.149L-0.092,-0.06L-0.076,-0.022L0,0Z" style="fill-rule:nonzero;"/>
            </g>
            <g id="path6435" transform="matrix(1,0,0,1,524.896,58.475)">
                <path d="M0,0L0.016,-0.026L0.016,-0.094L-0.012,-0.119L-0.076,-0.06L-0.072,-0.022L-0.06,-0.012L0,0Z" style="fill-rule:nonzero;"/>
            </g>
            <g id="path6439" transform="matrix(1,0,0,1,525.119,58.3511)">
                <path d="M0,0L0.008,-0.047L-0.016,-0.077L-0.083,-0.051L-0.1,-0.008L-0.096,0.038L-0.036,0.038L0,0Z" style="fill-rule:nonzero;"/>
            </g>
            <g id="path6443" transform="matrix(1,0,0,1,526.73,57.9795)">
                <path d="M0,0L-0.024,0.03L-0.032,0.094L-0.004,0.107L0.008,0.094L0.012,0.073L0,0M0.096,0.111L0.079,0.201L0.072,0.201L0.064,0.299L0.04,0.346L-0.024,0.411C-0.152,0.453 -0.192,0.342 -0.247,0.282L-0.272,0.248L-0.284,0.205L-0.288,0.205L-0.288,0.179L-0.3,0.141L-0.307,0.141L-0.315,-0.034L-0.3,-0.192L-0.288,-0.214L-0.2,-0.355L-0.032,-0.346L0.016,-0.316L0.072,-0.214L0.079,-0.214L0.088,-0.167C0.079,-0.064 0.108,0.012 0.096,0.111" style="fill-rule:nonzero;"/>
            </g>
            <g id="path6447" transform="matrix(1,0,0,1,523.365,57.3129)">
                <path d="M0,0L0.016,-0.026L0.047,-0.073L0.056,-0.119L0.008,-0.175L-0.22,-0.235L-0.347,-0.171L-0.332,-0.137L-0.328,-0.137L-0.315,-0.085L-0.307,-0.085L-0.3,-0.038L-0.256,0.018L-0.068,0.056L0,0Z" style="fill-rule:nonzero;"/>
            </g>
            <g id="path6451" transform="matrix(1,0,0,1,527.517,55.8002)">
                <path d="M0,0C-0.164,-0.004 -0.319,0 -0.479,0L-0.647,0.021L-0.679,0.051L-0.652,0.064L-0.292,0.026C-0.192,0.056 -0.096,0.012 0,0.008L0,0ZM3.424,-0.411C3.277,-0.359 3.105,-0.359 2.964,-0.304C2.829,-0.29 2.704,-0.248 2.557,-0.26L2.414,-0.231L2.278,-0.205C2.174,-0.184 2.062,-0.179 1.95,-0.171C1.854,-0.119 1.718,-0.153 1.63,-0.103C1.47,-0.094 1.347,-0.018 1.187,-0.038C1.074,-0.034 0.983,0.008 0.863,-0.004C0.748,0.03 0.607,0.012 0.492,0.034L0.275,0.051C0.124,0.068 -0.036,0.085 -0.192,0.068C-0.328,0.094 -0.471,0.115 -0.624,0.111L-0.819,0.141L-0.855,0.064L-0.863,0.064L-0.859,0.021L-0.763,-0.09C-0.643,-0.123 -0.503,-0.171 -0.368,-0.133C-0.26,-0.137 -0.156,-0.153 -0.052,-0.141C0.048,-0.158 0.152,-0.137 0.248,-0.163L0.443,-0.179C0.571,-0.188 0.695,-0.175 0.819,-0.196C0.915,-0.171 0.995,-0.218 1.091,-0.222L1.434,-0.248C1.551,-0.286 1.69,-0.265 1.806,-0.295C1.914,-0.299 2.022,-0.299 2.122,-0.325L2.346,-0.346L2.533,-0.385L2.701,-0.411C2.821,-0.453 2.964,-0.449 3.085,-0.492L3.292,-0.534L3.464,-0.512L3.472,-0.5L3.424,-0.411" style="fill-rule:nonzero;"/>
            </g>
            <g id="path6455" transform="matrix(1,0,0,1,526.086,55.2917)">
                <path d="M0,0C0.12,-0.038 0.271,-0.008 0.392,-0.064L0.563,-0.103L0.671,-0.141C0.771,-0.141 0.871,-0.175 0.974,-0.179L1.059,-0.274L1.059,-0.325C0.907,-0.316 0.78,-0.256 0.631,-0.24L0.439,-0.196C0.211,-0.188 0.02,-0.064 -0.216,-0.115L-0.356,-0.026L-0.371,0.026L-0.22,0.018L0,0" style="fill-rule:nonzero;"/>
            </g>
            <g id="path6459" transform="matrix(1,0,0,1,530.765,54.1423)">
                <path d="M0,0C-0.104,-0.043 -0.215,0.004 -0.315,0.017C-0.46,0.077 -0.631,0.115 -0.779,0.171L-0.779,0.175L-0.982,0.209C-1.087,0.248 -1.202,0.264 -1.319,0.282L-1.502,0.338C-1.666,0.411 -1.87,0.47 -2.041,0.53C-2.21,0.556 -2.353,0.619 -2.505,0.667L-2.665,0.739L-2.661,0.752C-2.569,0.761 -2.497,0.722 -2.417,0.709C-2.301,0.649 -2.146,0.633 -2.018,0.594L-1.886,0.577C-1.77,0.542 -1.634,0.53 -1.53,0.474C-1.43,0.449 -1.355,0.385 -1.242,0.376C-1.106,0.325 -0.951,0.295 -0.815,0.248L-0.563,0.197C-0.471,0.171 -0.368,0.163 -0.283,0.124L-0.151,0.085L0.004,0.022L0.008,0.022L0,0ZM0.224,0.008L0.164,0.077L0.028,0.175C-0.06,0.171 -0.108,0.231 -0.196,0.222C-0.268,0.256 -0.328,0.304 -0.428,0.299C-0.584,0.355 -0.771,0.381 -0.943,0.415L-1.127,0.496L-1.33,0.56L-1.478,0.619L-1.67,0.675C-1.894,0.748 -2.133,0.774 -2.365,0.838C-2.465,0.867 -2.589,0.859 -2.677,0.905C-3.064,0.965 -3.42,1.076 -3.795,1.154C-3.876,1.205 -4.004,1.197 -4.099,1.235L-4.191,1.252C-4.283,1.273 -4.391,1.278 -4.479,1.308L-4.575,1.324L-4.783,1.389C-4.882,1.449 -5.018,1.397 -5.103,1.359L-5.118,1.338L-5.106,1.273L-4.999,1.316L-4.843,1.273C-4.703,1.256 -4.579,1.217 -4.451,1.179L-4.259,1.107C-4.14,1.094 -4.019,1.107 -3.92,1.06C-3.795,1.042 -3.692,0.983 -3.56,1.013L-3.516,0.983C-3.428,0.979 -3.36,0.931 -3.292,0.901L-3.368,0.863L-3.428,0.79L-3.416,0.782C-3.309,0.744 -3.196,0.727 -3.085,0.688C-2.949,0.667 -2.833,0.598 -2.689,0.59C-2.473,0.517 -2.254,0.466 -2.041,0.393C-1.938,0.359 -1.806,0.342 -1.71,0.295L-1.626,0.264C-1.519,0.248 -1.446,0.184 -1.334,0.179C-1.215,0.145 -1.095,0.115 -0.978,0.077L-0.731,0.012C-0.575,-0.026 -0.407,-0.056 -0.26,-0.107C-0.156,-0.115 -0.064,-0.103 0.028,-0.133L0.224,-0.056L0.224,0.008" style="fill-rule:nonzero;"/>
            </g>
            <g id="path6463" transform="matrix(1,0,0,1,523.17,54.7278)">
                <path d="M0,0L0.012,-0.043L-0.016,-0.068L-0.228,-0.051L-0.232,0L-0.208,0.034L-0.048,0.052L0,0Z" style="fill-rule:nonzero;"/>
            </g>
            <g id="path6467" transform="matrix(1,0,0,1,528.999,53.1552)">
                <path d="M0,0L-0.024,0.008L-0.256,0.111L-0.464,0.218L-0.667,0.325L-0.895,0.405C-0.999,0.453 -1.123,0.479 -1.223,0.534C-1.327,0.564 -1.423,0.598 -1.502,0.663L-1.67,0.718C-1.754,0.752 -1.818,0.808 -1.91,0.829L-2.034,0.872L-2.261,0.983L-2.361,1.052L-2.333,1.086C-2.197,1.072 -2.105,0.987 -1.966,0.97L-1.914,0.953C-1.794,0.901 -1.658,0.872 -1.551,0.804C-1.458,0.774 -1.359,0.735 -1.279,0.697L-1.087,0.598L-0.971,0.534C-0.875,0.496 -0.767,0.449 -0.688,0.393L-0.511,0.316L-0.396,0.27L-0.156,0.137L0,0.022L0,0ZM0.515,-0.222L0.396,-0.129L0.271,-0.012L0.02,0.163C-0.088,0.256 -0.247,0.299 -0.36,0.393L-0.516,0.474L-0.584,0.504L-0.663,0.552C-0.755,0.556 -0.791,0.624 -0.867,0.641L-1.031,0.713L-1.247,0.8L-1.434,0.872L-1.59,0.935C-1.679,0.996 -1.794,1.026 -1.898,1.068C-2.001,1.081 -2.09,1.128 -2.186,1.149L-2.197,1.163L-2.437,1.171L-2.482,1.12L-2.493,1.072L-2.497,1.072L-2.473,0.987L-2.353,0.88C-2.201,0.824 -2.058,0.744 -1.905,0.693L-1.69,0.603C-1.61,0.538 -1.479,0.53 -1.387,0.483C-1.306,0.405 -1.167,0.411 -1.074,0.342C-0.927,0.325 -0.848,0.226 -0.699,0.209L-0.688,0.197L-0.492,0.103L-0.348,0.047C-0.224,0.012 -0.112,-0.038 -0.024,-0.115C0.068,-0.123 0.14,-0.175 0.228,-0.196L0.311,-0.244L0.499,-0.264L0.52,-0.235L0.515,-0.222" style="fill-rule:nonzero;"/>
            </g>
            <g id="path6471" transform="matrix(1,0,0,1,525.363,52.2067)">
                <path d="M0,0L0.016,0L0.04,-0.034C0.116,-0.073 0.179,-0.124 0.271,-0.145L0.364,-0.226L0.36,-0.274L0.352,-0.29L0.439,-0.342C0.543,-0.359 0.611,-0.411 0.703,-0.431L0.767,-0.487L0.799,-0.556L0.819,-0.572L0.835,-0.611L0.843,-0.675L0.851,-0.675C1.004,-0.845 1.089,-0.98 1.238,-1.145L1.274,-1.209L1.283,-1.209C1.388,-1.353 1.585,-1.509 1.638,-1.675L1.682,-1.743C1.746,-1.833 1.84,-1.976 1.866,-2.09L1.878,-2.247L1.89,-2.307L1.894,-2.307L1.914,-2.342L1.93,-2.461L1.937,-2.461L1.966,-2.529L1.982,-2.564C2.005,-2.652 2.109,-2.685 2.142,-2.833L2.154,-2.859L2.169,-2.922L2.178,-2.957L2.19,-3.132L2.229,-3.235L2.254,-3.277L2.289,-3.325L2.378,-3.401L2.51,-3.534L2.529,-3.573L2.545,-3.748L2.537,-3.748L2.525,-3.807L2.521,-3.807L2.517,-3.867L2.51,-3.867L2.513,-3.875L2.51,-3.875L2.51,-3.884L2.517,-3.884L2.521,-4.123L2.537,-4.337L2.557,-4.452L2.561,-4.504L2.569,-4.504L2.569,-4.526L2.574,-4.602L2.581,-4.645L2.585,-4.645L2.581,-4.842L2.625,-4.901L2.621,-4.974L2.613,-4.974L2.605,-5.034L2.597,-5.034L2.593,-5.068L2.589,-5.068L2.577,-5.123L2.533,-5.167L2.489,-5.145L2.489,-5.085L2.497,-5.085L2.51,-5.004L2.525,-4.923L2.525,-4.897L2.533,-4.897L2.529,-4.846L2.429,-4.756L2.421,-4.705L2.429,-4.705L2.442,-4.657L2.442,-4.593L2.446,-4.593L2.446,-4.542L2.453,-4.542L2.446,-4.465L2.429,-4.427L2.417,-4.389L2.405,-4.371L2.393,-4.316L2.385,-4.316L2.382,-4.175L2.378,-4.089L2.385,-4.089L2.385,-3.948L2.378,-3.948L2.378,-3.795L2.385,-3.795L2.385,-3.722L2.393,-3.722L2.369,-3.585L2.361,-3.585L2.346,-3.555L2.265,-3.474L2.182,-3.389L2.101,-3.286L2.094,-3.248L2.086,-3.248L2.082,-3.209L2.073,-3.107L2.042,-3.025L2.033,-2.961L2.026,-2.961L2.01,-2.867L1.998,-2.841L1.982,-2.807L1.918,-2.688L1.914,-2.688L1.894,-2.658L1.858,-2.589L1.846,-2.568L1.818,-2.529L1.81,-2.529L1.794,-2.487L1.778,-2.432L1.774,-2.392L1.766,-2.392L1.754,-2.281L1.746,-2.231L1.73,-2.064L1.722,-2.064L1.706,-2.021L1.666,-1.94L1.642,-1.888L1.638,-1.888L1.618,-1.858L1.583,-1.795L1.579,-1.795L1.558,-1.756C1.437,-1.574 1.406,-1.488 1.198,-1.324L1.106,-1.201L1.103,-1.201L1.07,-1.145C0.934,-0.92 0.784,-0.922 0.707,-0.683L0.627,-0.56L0.62,-0.56L0.484,-0.483L0.284,-0.393L0.279,-0.355L0.271,-0.355L0.247,-0.299C0.147,-0.299 0.128,-0.214 0.064,-0.179L-0.112,-0.081L-0.147,0.03L-0.096,0.051L0,0" style="fill-rule:nonzero;"/>
            </g>
            <g id="path6475" transform="matrix(1,0,0,1,523.11,48.3566)">
                <path d="M0,0L-0.008,-0.133L-0.016,-0.133L-0.02,-0.171L-0.024,-0.171L-0.036,-0.316L-0.028,-0.333L-0.032,-0.333L-0.036,-0.487L-0.044,-0.487L-0.06,-0.547L-0.06,-0.56L-0.108,-0.577L-0.16,-0.556L-0.196,-0.487L-0.211,-0.466L-0.232,-0.423L-0.252,-0.367L-0.292,-0.312L-0.296,-0.299L-0.392,-0.167L-0.411,-0.145L-0.452,-0.064L-0.456,-0.026L-0.464,-0.026L-0.499,0.034L-0.56,0.051L-0.592,0.077L-0.635,0.137L-0.775,0.256C-0.871,0.295 -0.923,0.385 -1.059,0.371L-1.223,0.32L-1.223,0.308L-1.434,0.316L-1.438,0.329L-1.434,0.393L-1.27,0.542L-1.187,0.607L-1.063,0.701L-0.951,0.812L-0.823,0.915L-0.723,0.987C-0.635,1.021 -0.567,1.081 -0.471,1.111L-0.392,1.098L-0.347,1.056L-0.304,1.008L-0.284,0.965L-0.24,0.915L-0.208,0.876L-0.192,0.838L-0.172,0.76L-0.164,0.76L-0.147,0.713L-0.128,0.659L-0.112,0.611L-0.104,0.611L-0.092,0.552L-0.08,0.526L-0.072,0.496L-0.044,0.325L-0.036,0.325L-0.024,0.115L-0.02,0.115L0,0.012L-0.008,0L0,0ZM0.084,0.103L0.076,0.205L0.056,0.316L0.06,0.316L0.044,0.419L0.036,0.419L0.028,0.5L0.02,0.5L0.012,0.538L0,0.649L-0.016,0.693L-0.024,0.693L-0.048,0.786L-0.06,0.842L-0.068,0.842L-0.084,0.915L-0.104,0.953L-0.12,0.991L-0.136,1.026L-0.147,1.038L-0.292,1.171L-0.432,1.261C-0.584,1.304 -0.684,1.193 -0.771,1.124L-0.855,1.056L-1.023,0.983L-1.067,0.94L-1.11,0.897L-1.174,0.842L-1.255,0.778C-1.342,0.735 -1.383,0.649 -1.462,0.59L-1.498,0.552C-1.576,0.468 -1.644,0.377 -1.722,0.29L-1.722,0.252L-1.714,0.252L-1.71,0.226L-1.654,0.153C-1.49,0.111 -1.33,0.167 -1.179,0.192L-1.007,0.226C-0.911,0.252 -0.879,0.175 -0.816,0.141L-0.723,0.047L-0.616,-0.026L-0.611,-0.043L-0.603,-0.043C-0.533,-0.147 -0.436,-0.24 -0.375,-0.351L-0.336,-0.423L-0.328,-0.423L-0.32,-0.449L-0.304,-0.478L-0.296,-0.478L-0.275,-0.538L-0.268,-0.538L-0.228,-0.628L-0.208,-0.653L-0.044,-0.739L0.036,-0.697L0.044,-0.688L0.047,-0.649L0.064,-0.461L0.072,-0.461L0.072,-0.385L0.064,-0.385L0.064,-0.252L0.072,-0.252L0.072,-0.201L0.076,-0.201L0.079,-0.149L0.088,-0.149L0.1,-0.064L0.104,-0.064L0.108,-0.026L0.112,-0.026L0.112,0.03L0.084,0.103" style="fill-rule:nonzero;"/>
            </g>
            <g id="path6479" transform="matrix(1,0,0,1,525.931,45.8569)">
                <path d="M0,0L-0.028,-0.03L-0.132,-0.012C-0.267,0.092 -0.369,0.233 -0.48,0.363L-0.492,0.376C-0.543,0.44 -0.659,0.474 -0.755,0.461L-0.959,0.504C-1.067,0.53 -1.151,0.466 -1.251,0.492L-1.287,0.542L-1.291,0.547L-1.287,0.547L-1.283,0.619L-1.255,0.649L-1.206,0.688L-1.155,0.727L-0.999,0.863L-0.999,0.872L-0.955,0.927L-0.835,1.056L-0.759,1.119C-0.691,1.197 -0.611,1.256 -0.492,1.282L-0.356,1.295L-0.228,1.183L-0.204,1.153L-0.188,1.128L-0.148,1.026L-0.14,1.026L-0.128,0.987L-0.116,0.965L-0.096,0.923L-0.084,0.859L-0.076,0.8C-0.049,0.705 -0.081,0.556 -0.049,0.466L-0.036,0.397L-0.028,0.397L-0.017,0.201L-0.012,0.201L-0.004,0.099L0.008,0.038L0,0M0.132,0.034L0.115,0.201L0.108,0.282L0.112,0.282L0.1,0.338L0.096,0.355L0.06,0.522L0.056,0.522L0.056,0.542L0.06,0.542L0.06,0.675L0.051,0.85L0.044,0.85L0.036,0.927L0.024,0.957L0.008,1L0,1L-0.008,1.052L-0.02,1.072L-0.036,1.107L-0.04,1.107L-0.052,1.132L-0.088,1.171L-0.168,1.278L-0.336,1.427L-0.456,1.453C-0.575,1.479 -0.627,1.389 -0.723,1.363L-0.723,1.359L-0.851,1.265L-1.051,1.068L-1.071,1.034L-1.071,1.017L-1.103,0.957L-1.223,0.812L-1.334,0.722L-1.387,0.645L-1.406,0.607L-1.466,0.534L-1.466,0.474L-1.443,0.44C-1.379,0.367 -1.231,0.329 -1.119,0.367L-0.979,0.363L-0.752,0.355L-0.748,0.401L-0.739,0.401L-0.735,0.363L-0.743,0.363L-0.731,0.329L-0.707,0.329L-0.56,0.278L-0.56,0.27L-0.492,0.209L-0.475,0.175L-0.407,0.081L-0.392,0.06L-0.328,-0.026L-0.32,-0.026L-0.252,-0.094L-0.06,-0.149L0.104,-0.119L0.132,-0.064L0.14,-0.064L0.14,0.034L0.132,0.034Z" style="fill-rule:nonzero;"/>
            </g>
            <g id="path6483" transform="matrix(1,0,0,1,538.748,55.7063)">
                <path d="M0,0L0.004,-0.034L0.032,-0.188L0.044,-0.24L0.052,-0.316L0.06,-0.316L0.08,-0.397L0.088,-0.397L0.096,-0.483L0.104,-0.483L0.112,-0.534L0.12,-0.534L0.124,-0.568L0.16,-0.701L0.164,-0.701L0.168,-0.752L0.184,-0.85L0.192,-0.85L0.2,-0.918L0.314,-0.918L0.311,-0.863L0.303,-0.863L0.3,-0.824L0.288,-0.752L0.279,-0.752L0.268,-0.701L0.264,-0.701L0.248,-0.649L0.236,-0.594L0.228,-0.5L0.22,-0.5L0.207,-0.449L0.204,-0.449L0.188,-0.393L0.184,-0.338L0.172,-0.316L0.143,-0.167L0.14,-0.115L0.132,-0.115L0.124,-0.06L0.112,-0.03L0.096,0.012L0.088,0.012L0.08,0.068L0.072,0.068L0.06,0.129L0.028,0.205L0.012,0.256L0.004,0.256L-0.016,0.32L-0.032,0.355L-0.048,0.389L-0.068,0.436L-0.072,0.436L-0.092,0.53L-0.1,0.53L-0.12,0.615L-0.136,0.663L-0.152,0.693L-0.16,0.693L-0.179,0.752L-0.196,0.79L-0.224,0.863L-0.24,0.906L-0.247,0.906L-0.268,0.996L-0.284,1.034L-0.292,1.034L-0.307,1.094L-0.315,1.094L-0.336,1.175L-0.352,1.205L-0.368,1.239L-0.375,1.239L-0.396,1.299L-0.411,1.354L-0.428,1.397L-0.46,1.479L-0.475,1.525L-0.499,1.586L-0.507,1.586L-0.511,1.628L-0.524,1.675L-0.543,1.765L-0.548,1.765L-0.56,1.828L-0.571,1.85L-0.584,1.888L-0.592,1.888L-0.603,1.953L-0.607,1.953L-0.616,1.987L-0.627,2.047L-0.643,2.094L-0.652,2.094L-0.671,2.158L-0.688,2.196L-0.752,2.299L-0.799,2.354L-0.867,2.453L-0.859,2.529L-0.848,2.581L-0.843,2.581L-0.848,2.636L-0.887,2.731L-0.903,2.773L-0.911,2.773L-0.919,2.799L-0.927,2.799L-0.947,2.837L-0.955,2.837L-0.963,2.863L-0.971,2.863L-0.999,2.914C-1.172,3.147 -1.266,3.365 -1.402,3.602L-1.442,3.684L-1.451,3.684L-1.487,3.743C-1.573,3.849 -1.651,3.973 -1.766,4.047L-1.87,4.132L-2.014,4.081L-1.99,4.012L-1.834,3.922L-1.666,3.782L-1.59,3.704L-1.479,3.593L-1.515,3.547L-1.574,3.487L-1.598,3.462L-1.61,3.448L-1.598,3.406L-1.586,3.392L-1.423,3.333L-1.423,3.325L-1.415,3.325C-1.306,3.194 -1.209,3.052 -1.111,2.91L-1.095,2.872L-1.087,2.872L-1.027,2.773L-1.027,2.726L-1.035,2.726L-1.042,2.67L-1.051,2.67L-1.095,2.606L-1.103,2.598L-1.099,2.577L-1.047,2.483L-0.959,2.392L-0.955,2.38L-0.839,2.247L-0.819,2.205L-0.811,2.205L-0.771,2.106L-0.752,2.081L-0.731,2.017L-0.723,2.017L-0.711,1.957L-0.703,1.893L-0.688,1.82L-0.667,1.782L-0.643,1.735L-0.639,1.735L-0.627,1.683L-0.62,1.683L-0.607,1.598L-0.611,1.598L-0.603,1.534L-0.595,1.534L-0.584,1.483L-0.571,1.457L-0.56,1.397L-0.543,1.354L-0.52,1.32L-0.499,1.269L-0.492,1.269L-0.475,1.197C-0.438,1.094 -0.382,0.995 -0.339,0.885L-0.328,0.816L-0.32,0.816L-0.307,0.756L-0.284,0.663L-0.275,0.663L-0.268,0.603L-0.26,0.603L-0.24,0.53L-0.232,0.53L-0.215,0.483L-0.2,0.449L-0.179,0.401L-0.164,0.359L-0.156,0.359L-0.115,0.274L-0.092,0.209L-0.076,0.171L-0.068,0.171L-0.044,0.103L-0.028,0.064L-0.008,0L0,0Z" style="fill-rule:nonzero;"/>
            </g>
            <g id="path6487" transform="matrix(1,0,0,1,526.602,63.7651)">
                <path d="M0,0L0,-0.043L-0.008,-0.043L-0.012,-0.081L-0.016,-0.081L-0.028,-0.123L-0.052,-0.153L-0.12,-0.231L-0.272,-0.179L-0.316,-0.123L-0.339,-0.099L-0.356,-0.056L-0.368,-0.03L-0.384,0.03L-0.375,0.03L-0.375,0.073L-0.371,0.073L-0.368,0.167L-0.339,0.209L-0.3,0.264L-0.132,0.304L-0.048,0.222L-0.024,0.153L-0.016,0.153L0.004,0.047L0.008,0L0,0ZM0.1,0.099L0.088,0.201L0.072,0.23L0.04,0.278L0.036,0.286L0,0.32L-0.064,0.381C-0.132,0.423 -0.228,0.376 -0.316,0.397L-0.388,0.342L-0.428,0.29L-0.467,0.201L-0.471,0.201L-0.484,0.145L-0.492,0.145L-0.492,0.06L-0.484,0.06L-0.471,-0.056L-0.467,-0.056L-0.447,-0.149L-0.432,-0.192L-0.424,-0.192L-0.396,-0.256L-0.316,-0.27L-0.068,-0.295L-0.024,-0.26L0.036,-0.175L0.052,-0.149L0.052,-0.141L0.096,-0.056L0.104,-0.056L0.1,0.099" style="fill-rule:nonzero;"/>
            </g>
            <g id="path6491" transform="matrix(1,0,0,1,533.043,62.9661)">
                <path d="M0,0L0,-0.004L-0.064,0.06L-0.092,0.085L-0.16,0.175L-0.164,0.188L-0.288,0.304L-0.403,0.401L-0.543,0.526L-0.567,0.56L-0.575,0.56L-0.579,0.572L-0.603,0.611L-0.439,0.534C-0.292,0.363 -0.158,0.305 -0.028,0.163L-0.008,0.103L0,0.103L0.008,0.008L0,0M-0.096,-0.419L-0.144,-0.407L-0.136,-0.385L-0.072,-0.363L-0.068,-0.371L-0.096,-0.419M-3.412,0.064L-3.437,0.123L-3.32,0.167L-3.305,0.085L-3.412,0.064M-4.2,0.004L-4.236,-0.047L-4.411,-0.163L-4.671,-0.265C-4.822,-0.29 -4.926,-0.367 -5.063,-0.411L-5.263,-0.466L-5.486,-0.59L-5.538,-0.619C-5.681,-0.649 -5.81,-0.709 -5.917,-0.782L-6.165,-0.889C-6.364,-1.023 -6.555,-1.172 -6.693,-1.376L-6.744,-1.431L-6.912,-1.376L-6.957,-1.304L-6.972,-1.269L-7.025,-1.205L-7.032,-1.179L-7.04,-1.179L-7.08,-1.12L-7.116,-1.052L-7.136,-1L-7.168,-0.941L-7.18,-0.889L-7.188,-0.889L-7.204,-0.846L-7.208,-0.816L-7.216,-0.816L-7.228,-0.748L-7.24,-0.679L-7.248,-0.679L-7.252,-0.619L-7.256,-0.419L-7.248,-0.355L-7.256,-0.274L-7.256,-0.124L-7.252,-0.124L-7.24,-0.073L-7.24,0.081L-7.248,0.081L-7.248,0.184L-7.24,0.184L-7.252,0.274L-7.256,0.274L-7.268,0.337L-7.276,0.337L-7.276,0.423L-7.248,0.444L-7.153,0.492L-7.136,0.517L-7.112,0.551L-7.112,0.628L-7.1,0.628L-7.1,0.667L-7.092,0.667L-7.089,0.744L-7.084,0.744L-7.089,0.833L-7.116,0.965L-7.172,1.034L-7.256,1.064L-7.256,1.132L-7.252,1.132L-7.248,1.179L-7.24,1.179L-7.232,1.235L-7.224,1.235L-7.128,1.401L-7.112,1.439L-7.092,1.465L-7.057,1.53L-7.032,1.556L-7.025,1.598L-7.016,1.598L-7.028,1.658L-7.04,1.675L-7.064,1.713L-7.084,1.756L-7.08,1.756L-7.08,1.786L-7.076,1.786C-7.084,1.897 -7.057,1.995 -7.076,2.102L-7.068,2.106L-7.072,2.128L-7.068,2.128L-7.076,2.243L-7.084,2.243L-7.092,2.307L-7.1,2.307L-7.116,2.384L-7.12,2.418L-7.128,2.418L-7.136,2.483L-7.144,2.483L-7.148,2.576C-7.172,2.67 -7.156,2.811 -7.16,2.927L-7.153,3.068L-7.148,3.068L-7.136,3.106L-7.136,3.252L-7.128,3.252L-7.116,3.337L-7.112,3.337L-7.112,3.406L-7.096,3.414L-7.064,3.388C-7.011,3.259 -6.957,3.131 -6.884,3.013L-6.853,2.906L-6.848,2.906L-6.829,2.837L-6.821,2.837L-6.804,2.803L-6.801,2.785L-6.793,2.726L-6.789,2.722L-6.793,2.722L-6.793,2.598L-6.801,2.598L-6.812,2.503L-6.804,2.499L-6.812,2.499L-6.804,2.495L-6.812,2.495L-6.812,2.465L-6.804,2.465L-6.804,2.453L-6.812,2.453L-6.812,2.368L-6.816,2.368L-6.821,2.277L-6.829,2.277L-6.821,2.14L-6.829,2.14L-6.829,2.064L-6.836,2.064L-6.84,1.906L-6.844,1.906L-6.844,1.79L-6.836,1.79L-6.812,1.765L-6.729,1.842L-6.729,1.858L-6.725,1.858L-6.725,1.953L-6.712,2.098L-6.712,2.136L-6.708,2.136L-6.712,2.251L-6.712,2.316L-6.708,2.316L-6.705,2.398L-6.697,2.398L-6.684,2.474L-6.684,2.564L-6.68,2.564L-6.676,2.683L-6.672,2.683L-6.676,2.688L-6.672,2.688L-6.661,2.91L-6.657,2.91L-6.644,2.987L-6.644,3.021L-6.637,3.021L-6.625,3.081L-6.621,3.081L-6.609,3.145L-6.605,3.145L-6.593,3.243L-6.584,3.243L-6.584,3.38L-6.593,3.38L-6.593,3.44L-6.584,3.44L-6.588,3.444L-6.584,3.444L-6.577,3.504L-6.569,3.504L-6.561,3.573L-6.553,3.573L-6.541,3.628L-6.537,3.628L-6.525,3.674L-6.505,3.692L-6.433,3.602L-6.421,3.559L-6.397,3.521L-6.381,3.491L-6.361,3.426L-6.357,3.426L-6.337,3.388L-6.325,3.345L-6.313,3.315L-6.301,3.239L-6.297,3.239L-6.281,3.2L-6.269,3.184L-6.253,3.145L-6.233,3.081L-6.225,3.081L-6.217,3.033L-6.209,3.033L-6.19,2.983L-6.149,2.914L-6.133,2.867L-6.129,2.829L-6.121,2.829L-6.113,2.747L-6.105,2.747L-6.097,2.624C-6.09,2.494 -6.083,2.344 -5.994,2.243L-5.921,2.166C-5.858,2.094 -5.794,2.025 -5.674,1.999L-5.506,1.888L-5.39,1.786L-5.362,1.731L-5.354,1.731L-5.338,1.701C-5.27,1.577 -5.235,1.455 -5.154,1.346L-5.114,1.304C-4.886,0.862 -4.978,1.081 -4.679,0.778L-4.635,0.713L-4.559,0.564L-4.555,0.564L-4.535,0.504L-4.519,0.444L-4.511,0.444L-4.491,0.367L-4.483,0.367L-4.467,0.333L-4.435,0.274L-4.423,0.248L-4.419,0.235L-4.2,0.129L-4.179,0.043L-4.2,0.004M-7.308,0.56L-7.328,0.594L-7.34,0.744L-7.332,0.808L-7.328,0.808L-7.315,0.859L-7.284,0.911L-7.248,0.957L-7.232,0.935L-7.212,0.911L-7.284,0.774L-7.252,0.73L-7.216,0.697L-7.196,0.683L-7.2,0.633L-7.208,0.633L-7.244,0.581L-7.308,0.56M-13.169,-12.443L-13.017,-12.341C-12.91,-12.276 -12.793,-12.22 -12.686,-12.152L-12.622,-12.196L-12.618,-12.225L-12.61,-12.315L-12.593,-12.439L-12.59,-12.439L-12.59,-12.567L-12.593,-12.567L-12.602,-12.725L-12.593,-12.764L-12.59,-12.764L-12.574,-12.832L-12.57,-12.887L-12.562,-12.887L-12.558,-13.093L-12.542,-13.264L-12.526,-13.395L-12.522,-13.401L-12.526,-13.401L-12.518,-13.413L-12.526,-13.413L-12.522,-13.421L-12.526,-13.421L-12.534,-13.486L-12.554,-13.507L-12.582,-13.503L-12.642,-13.413L-12.65,-13.395L-12.71,-13.284L-12.757,-13.229L-12.793,-13.153L-12.798,-13.153L-12.834,-13.093L-12.853,-13.075C-12.885,-13.008 -12.981,-13.002 -13.07,-13.008C-13.181,-13.02 -13.265,-13.062 -13.369,-13.088L-13.501,-13.157L-13.701,-13.255L-13.757,-13.242L-13.765,-13.208L-13.761,-13.208L-13.748,-13.131L-13.729,-13.088L-13.713,-13.062L-13.713,-13.028L-13.688,-13.002L-13.661,-12.926L-13.656,-12.926L-13.645,-12.887C-13.407,-12.553 -13.493,-12.795 -13.281,-12.537L-13.169,-12.443M-2.182,0.556L-2.169,0.564L-2.114,0.607L-1.95,0.607L-1.95,0.581L-2.001,0.538L-2.182,0.512L-2.182,0.556ZM4.175,-3.286C4.076,-3.196 3.983,-3.098 3.908,-2.995L3.855,-2.829L3.795,-2.781L3.772,-2.739L3.752,-2.654L3.596,-2.444C3.501,-2.376 3.452,-2.261 3.341,-2.209L3.209,-2.102L3.181,-2.06L3.192,-2.039L3.216,-1.999L3.216,-1.936L3.049,-1.803L2.964,-1.717L2.753,-1.543C2.653,-1.495 2.557,-1.44 2.437,-1.44C2.329,-1.393 2.201,-1.38 2.101,-1.312L1.89,-1.213L1.686,-1.082L1.602,-1.013L1.59,-0.953L1.814,-1.004L1.95,-0.996L1.958,-0.941L1.93,-0.902L1.754,-0.855L1.57,-0.829L1.415,-0.709L1.451,-0.683L1.711,-0.731L1.806,-0.748C1.894,-0.769 1.982,-0.812 2.078,-0.8L2.225,-0.756L2.205,-0.718C2.005,-0.701 1.838,-0.607 1.646,-0.582L1.458,-0.508L1.547,-0.461C1.662,-0.449 1.762,-0.487 1.866,-0.487C2.058,-0.508 2.225,-0.572 2.393,-0.645L2.601,-0.744L2.665,-0.709L2.665,-0.641L2.613,-0.598L2.437,-0.466C2.333,-0.487 2.282,-0.381 2.174,-0.401C2.01,-0.381 1.85,-0.329 1.679,-0.346L1.479,-0.316L1.451,-0.278L1.479,-0.252L1.642,-0.24C1.73,-0.226 1.818,-0.226 1.91,-0.218C2.046,-0.197 2.205,-0.205 2.341,-0.231L2.365,-0.214L2.365,-0.171C2.182,-0.09 1.974,-0.137 1.774,-0.119L1.534,-0.133L1.51,-0.103L1.686,-0.004C1.79,0.055 1.926,0.064 2.022,0.141C2.118,0.184 2.229,0.188 2.333,0.196L2.537,0.342L2.553,0.371L2.606,0.47L2.649,0.542L2.661,0.619L2.665,0.619L2.669,0.675L2.673,0.726L2.685,0.863L2.689,1L2.701,1.004L2.689,1.094L2.701,1.145L2.701,1.316L2.693,1.324C2.689,1.41 2.693,1.538 2.689,1.649L2.709,1.701L2.701,1.79L2.709,1.949L2.717,2.06L2.725,2.064C2.725,2.171 2.729,2.269 2.733,2.372L2.725,2.418C2.697,2.566 2.72,2.97 2.689,3.14L2.673,3.235C2.681,3.329 2.657,3.406 2.665,3.5L2.649,3.538L2.657,3.632L2.649,3.636L2.641,3.811L2.629,3.845L2.613,3.875L2.613,3.974L2.606,3.978L2.593,4.103L2.565,4.162L2.557,4.248L2.545,4.337L2.537,4.448L2.537,4.666L2.525,4.67L2.533,4.679L2.525,4.683L2.533,4.743L2.529,4.743L2.525,4.884L2.517,4.889L2.51,5.02C2.458,5.294 2.443,5.567 2.353,5.832L2.318,5.943C2.274,6.042 2.269,6.191 2.197,6.273L2.118,6.316L1.905,6.268L1.882,6.221L1.85,6.187L1.818,6.132L1.786,6.094L1.734,6.003L1.662,5.858L1.594,5.713L1.554,5.645L1.51,5.564L1.483,5.529L1.458,5.491C1.419,5.388 1.334,5.32 1.279,5.23L1.242,5.165L1.163,5.046C0.888,4.529 0.631,4.01 0.364,3.495L0.336,3.444L0.32,3.392C0.159,2.681 -0.109,2.219 -0.439,1.576L-0.448,1.538L-0.484,1.479L-0.464,1.423L-0.448,1.183C-0.388,1.09 -0.296,1.008 -0.228,0.923L-0.144,0.812C-0.105,0.673 0.029,0.556 0.016,0.401L0.016,0.355L-0.084,0.405L-0.216,0.508C-0.292,0.598 -0.403,0.671 -0.52,0.718C-0.567,0.76 -0.607,0.855 -0.699,0.812L-0.735,0.744L-0.771,0.718L-0.827,0.645C-0.72,0.534 -0.567,0.457 -0.452,0.355L-0.296,0.218L-0.144,0.047L-0.012,-0.043L0,-0.085L0.012,-0.145L0,-0.175L-0.032,-0.201L-0.112,-0.158L-0.272,-0.03L-0.379,0.068C-0.467,0.141 -0.575,0.184 -0.667,0.256L-0.812,0.226L-0.716,0.133C-0.627,0.055 -0.511,0.017 -0.42,-0.056L-0.392,-0.111L-0.435,-0.103C-0.62,-0.085 -0.787,-0.018 -0.975,0.004C-1.067,0 -1.135,0.064 -1.231,0.051C-1.342,0.111 -1.483,0.077 -1.594,0.133L-1.611,0.153L-1.666,0.184C-1.79,0.163 -1.91,0.167 -2.037,0.158L-2.122,0.175L-2.265,0.24L-2.258,0.337C-2.242,0.453 -2.09,0.381 -2.03,0.457C-1.905,0.461 -1.822,0.56 -1.698,0.56L-1.666,0.624L-1.854,0.645L-1.846,0.663L-1.81,0.697L-1.611,0.774L-1.63,0.812L-1.714,0.799L-1.862,0.739C-1.969,0.744 -2.062,0.722 -2.169,0.718L-2.242,0.765L-2.321,0.657C-2.348,0.592 -2.277,0.555 -2.337,0.397L-2.361,0.214L-2.482,0.184C-2.609,0.158 -2.737,0.167 -2.861,0.137L-3.068,0.107L-3.105,0.24L-3.109,0.316L-3.096,0.401L-3.089,0.405L-3.096,0.585L-3.089,0.611L-3.096,0.641L-3.089,0.718L-3.068,0.756L-3.06,0.824L-3.053,0.905L-3.045,0.965L-3.057,1L-3.077,1.09L-3.1,1.145L-3.105,1.256L-3.305,1.389L-3.432,1.487C-3.521,1.658 -3.507,1.766 -3.464,1.949L-3.448,1.987L-3.42,2.042C-3.359,2.204 -3.298,2.362 -3.256,2.529L-3.245,2.602L-3.196,2.825L-3.192,2.825L-3.188,2.867L-3.173,2.952C-3.095,3.209 -2.989,3.448 -2.904,3.7L-2.881,3.756L-2.873,3.799C-2.648,4.432 -2.465,4.607 -2.137,5.123L-1.994,5.298L-1.898,5.388L-1.854,5.346C-1.801,5.159 -1.77,4.967 -1.734,4.778L-1.742,4.538L-1.75,4.534L-1.726,4.482C-1.702,4.295 -1.679,4.109 -1.67,3.922L-1.666,3.773C-1.64,3.651 -1.63,3.609 -1.611,3.478L-1.594,3.432L-1.594,3.307L-1.586,3.303C-1.594,3.192 -1.57,3.106 -1.578,2.995L-1.57,2.936L-1.551,2.88L-1.551,2.726L-1.566,2.654L-1.57,2.547L-1.578,2.513L-1.586,2.406L-1.594,2.398L-1.598,2.295L-1.594,2.188L-1.586,2.162L-1.57,2.124L-1.562,1.995L-1.551,1.957L-1.534,1.919L-1.526,1.846L-1.511,1.803L-1.502,1.619L-1.506,1.619L-1.515,1.534L-1.586,1.363C-1.662,1.265 -1.774,1.171 -1.922,1.175L-2.129,1.076L-2.233,0.974L-2.242,0.915L-2.222,0.885L-2.218,0.82L-2.173,0.794C-2.086,0.82 -1.994,0.833 -1.905,0.863L-1.774,0.889L-1.63,0.915L-1.834,0.979L-1.922,0.974L-1.93,1L-1.73,1.107C-1.642,1.163 -1.558,1.222 -1.483,1.294L-1.442,1.367C-1.366,1.445 -1.391,1.619 -1.394,1.721L-1.394,1.794L-1.406,1.854L-1.423,1.919L-1.423,2.239L-1.43,2.243L-1.451,2.312L-1.451,2.572L-1.438,2.576L-1.438,2.67L-1.43,2.829L-1.438,2.876L-1.458,2.94L-1.458,3.222L-1.451,3.226L-1.458,3.265C-1.437,3.5 -1.502,3.723 -1.511,3.952L-1.519,4.016C-1.571,4.168 -1.52,4.217 -1.578,4.337L-1.586,4.44L-1.606,4.5C-1.594,4.593 -1.618,4.67 -1.611,4.768L-1.622,4.845C-1.653,5.234 -1.717,5.213 -1.766,5.491L-1.786,5.546L-1.958,5.55L-2.041,5.457L-2.173,5.332L-2.186,5.316L-2.193,5.268L-2.218,5.226L-2.273,5.153L-2.382,4.978L-2.465,4.875C-2.62,4.737 -2.631,4.57 -2.785,4.384L-2.793,4.337L-2.817,4.282C-2.899,4.008 -3.044,3.774 -3.105,3.517L-3.149,3.426L-3.156,3.38L-3.181,3.32L-3.2,3.295C-3.287,2.98 -3.385,2.901 -3.42,2.538L-3.432,2.448L-3.448,2.418C-3.46,2.166 -3.712,1.832 -3.612,1.598L-3.592,1.546L-3.568,1.5L-3.516,1.41C-3.456,1.308 -3.324,1.299 -3.232,1.226L-3.149,1.157L-3.22,1.017L-3.341,1.068C-3.464,1.09 -3.548,1.179 -3.648,1.231L-3.876,1.308L-3.963,1.269L-3.859,1.179C-3.763,1.171 -3.672,1.137 -3.612,1.072L-3.696,0.991L-3.756,0.915L-3.532,0.901C-3.428,0.871 -3.296,0.893 -3.213,0.808L-3.232,0.744L-3.484,0.722L-3.603,0.679L-3.62,0.649L-3.473,0.657L-3.252,0.649L-3.241,0.56L-3.292,0.504C-3.392,0.482 -3.496,0.47 -3.592,0.444L-3.62,0.389L-3.564,0.371L-3.332,0.44L-3.249,0.419L-3.249,0.333L-3.328,0.248L-3.508,0.158L-3.731,0.068L-3.895,-0.026L-3.987,-0.034L-3.98,0.06L-3.972,0.111L-3.984,0.167L-3.999,0.214L-4.115,0.274L-4.319,0.312L-4.327,0.351L-4.343,0.41L-4.415,0.607L-4.427,0.628L-4.463,0.697C-4.499,0.824 -4.603,0.897 -4.687,0.987L-4.839,1.107C-5.097,1.438 -5.104,1.599 -5.318,1.902L-5.51,2.077C-5.662,2.132 -5.81,2.205 -5.905,2.329L-5.913,2.384L-5.921,2.44L-5.941,2.495L-5.945,2.624L-5.966,2.696L-5.966,2.709L-5.958,2.799L-5.973,2.841L-5.99,2.876L-6.005,2.944L-6.026,2.97L-6.049,3.055L-6.069,3.081L-6.094,3.145L-6.137,3.213L-6.158,3.281L-6.161,3.337L-6.185,3.38L-6.253,3.559L-6.325,3.684L-6.345,3.743L-6.361,3.799L-6.381,3.837L-6.413,3.927L-6.433,3.96L-6.52,3.982L-6.577,3.927C-6.681,3.775 -6.702,3.233 -6.74,3.098L-6.78,3.081L-6.833,3.174C-6.903,3.328 -6.953,3.447 -7.008,3.602L-7.096,3.718L-7.16,3.704L-7.18,3.649L-7.196,3.567L-7.208,3.512L-7.224,3.414L-7.24,3.354L-7.252,3.154L-7.26,3.149L-7.26,3.055L-7.276,2.97L-7.276,2.765L-7.268,2.761L-7.276,2.735L-7.276,2.564L-7.268,2.559L-7.26,2.427C-7.232,2.333 -7.206,2.244 -7.18,2.149L-7.192,2.06C-7.18,1.949 -7.204,1.854 -7.196,1.743L-7.188,1.675L-7.185,1.675L-7.185,1.546C-7.419,1.132 -7.347,1.249 -7.408,0.901L-7.411,0.769L-7.424,0.76L-7.411,0.693C-7.409,0.557 -7.378,0.395 -7.364,0.248L-7.347,0.179C-7.347,0.081 -7.356,0.026 -7.352,-0.077L-7.364,-0.081L-7.372,-0.145C-7.409,-0.345 -7.423,-0.549 -7.347,-0.744L-7.315,-0.885L-7.312,-0.885L-7.288,-0.975L-7.216,-1.145L-7.172,-1.235L-7.104,-1.359L-7.208,-1.483L-7.296,-1.581L-7.36,-1.564L-7.364,-1.577L-7.388,-1.564L-7.472,-1.636L-7.492,-1.564L-7.483,-1.475L-7.543,-1.44L-7.615,-1.547L-7.66,-1.658L-7.684,-1.705C-7.849,-1.832 -7.905,-2.085 -8.035,-2.261L-8.079,-2.32L-8.095,-2.368C-8.147,-2.5 -8.218,-2.619 -8.278,-2.747L-8.342,-2.85L-8.37,-2.928L-8.399,-2.966C-8.619,-3.288 -8.754,-3.659 -8.81,-4.055L-8.83,-4.115L-8.838,-4.239L-8.842,-4.239L-8.847,-4.282L-8.854,-4.324L-8.87,-4.363L-8.878,-4.474L-8.898,-4.512L-9.022,-4.687L-9.134,-4.752L-9.286,-4.82C-9.482,-4.854 -9.665,-4.931 -9.845,-4.995L-9.917,-5.05C-10.045,-5.055 -10.108,-5.153 -10.193,-5.217L-10.193,-5.23L-10.217,-5.269L-10.224,-5.332L-10.253,-5.388L-10.26,-5.521L-10.26,-5.602L-10.253,-5.658L-10.241,-5.721L-10.245,-5.837L-10.285,-5.923L-10.36,-6.106L-10.388,-6.221L-10.396,-6.239L-10.46,-6.372L-10.513,-6.362L-10.648,-6.366L-10.648,-6.362L-10.764,-6.307L-10.92,-6.341L-10.912,-6.401L-10.856,-6.431L-10.637,-6.495L-10.477,-6.572L-10.452,-6.619L-10.432,-6.696L-10.432,-6.837L-10.441,-6.876L-10.468,-6.914C-10.588,-6.93 -10.7,-6.965 -10.812,-6.991C-10.956,-7.029 -11.076,-7.102 -11.216,-7.148L-11.44,-7.251L-11.443,-7.307L-11.419,-7.367L-11.216,-7.307L-10.967,-7.188C-10.808,-7.144 -10.664,-7.055 -10.492,-7.037L-10.468,-7.076L-10.456,-7.128L-10.468,-7.192L-10.484,-7.23L-10.492,-7.277L-10.513,-7.311L-10.528,-7.375L-10.536,-7.44L-10.552,-7.469L-10.573,-7.533L-10.732,-7.644L-10.792,-7.73L-10.58,-7.708L-10.492,-7.794L-10.484,-7.888L-10.468,-7.931L-10.452,-7.982L-10.432,-8.012L-10.424,-8.101L-10.409,-8.14L-10.396,-8.2L-10.381,-8.238L-10.364,-8.29L-10.336,-8.333L-10.356,-8.393C-10.436,-8.431 -10.524,-8.469 -10.62,-8.478L-10.768,-8.533L-10.828,-8.585L-10.844,-8.653L-10.828,-8.764L-10.816,-8.802L-10.828,-8.806L-10.912,-8.922L-10.98,-9.068L-11.035,-9.165L-11.148,-9.32L-11.276,-9.388L-11.455,-9.558L-11.515,-9.64L-11.527,-9.674L-11.543,-9.713L-11.568,-9.755L-11.723,-9.888L-11.779,-9.991C-11.819,-10.114 -11.958,-10.161 -12.018,-10.268C-12.047,-10.362 -12.167,-10.37 -12.207,-10.452C-12.31,-10.516 -12.374,-10.61 -12.466,-10.682L-12.614,-10.798L-12.757,-10.866L-12.698,-10.969L-12.785,-11.089C-12.881,-11.148 -12.949,-11.221 -13.009,-11.307L-13.077,-11.392L-13.07,-11.43L-13.038,-11.537L-13.053,-11.563L-13.198,-11.729L-13.241,-11.789L-13.309,-11.9L-13.321,-11.96L-13.301,-11.994L-13.309,-12.067L-13.393,-12.186L-13.441,-12.264L-13.485,-12.327L-13.489,-12.387L-13.509,-12.464L-13.533,-12.541L-13.684,-12.716L-13.716,-12.764L-13.733,-12.806L-13.852,-12.977L-13.897,-13.08L-13.904,-13.105L-13.916,-13.169L-13.933,-13.212L-13.948,-13.272L-13.961,-13.379L-13.965,-13.532L-13.976,-13.558L-13.961,-13.614L-14.061,-13.738C-14.126,-13.955 -14.147,-13.907 -14.208,-14.058L-14.193,-14.084C-14.125,-14.205 -14.174,-14.523 -14.236,-14.648L-14.24,-14.729L-14.2,-14.755L-14.164,-14.691L-14.148,-14.614L-14.14,-14.545L-14.12,-14.511L-14.104,-14.465L-14.088,-14.396L-14.096,-14.242L-14.08,-14.195L-14.061,-14.139L-14.036,-14.088L-13.984,-14.02L-13.984,-13.96L-13.989,-13.905L-13.976,-13.866L-13.837,-13.695L-13.748,-13.601L-13.725,-13.562L-13.725,-13.546L-13.793,-13.43L-13.769,-13.413C-13.665,-13.379 -13.569,-13.31 -13.453,-13.302C-13.341,-13.25 -13.217,-13.135 -13.081,-13.208L-12.878,-13.37L-12.834,-13.435L-12.817,-13.481L-12.802,-13.524L-12.654,-13.665L-12.51,-13.644L-12.438,-13.528L-12.422,-13.469L-12.406,-13.413L-12.386,-13.366L-12.386,-13.08L-12.399,-13.002L-12.406,-12.943L-12.414,-12.836L-12.422,-12.836L-12.422,-12.264L-12.438,-12.212L-12.458,-12.165L-12.466,-12.123L-12.53,-12.007L-12.77,-12.054L-12.81,-12.089L-13.017,-12.2C-13.102,-12.242 -13.162,-12.332 -13.257,-12.337L-13.221,-12.234L-13.189,-12.148L-13.173,-12.084L-13.166,-12.003C-13.077,-11.948 -13.013,-11.862 -12.921,-11.807L-12.906,-11.768L-12.993,-11.759L-13.053,-11.772L-13.03,-11.734L-12.878,-11.563C-12.762,-11.507 -12.718,-11.404 -12.63,-11.328L-12.598,-11.208L-12.698,-11.2L-12.698,-11.178C-12.338,-10.866 -12.376,-10.666 -11.843,-10.324L-11.627,-10.106C-11.539,-10.102 -11.527,-10.012 -11.459,-9.981C-11.336,-9.832 -11.123,-9.794 -10.96,-9.674C-10.812,-9.584 -10.644,-9.542 -10.468,-9.508L-10.204,-9.439L-10.073,-9.413L-10.065,-9.508L-10.004,-9.528C-9.881,-9.597 -9.737,-9.657 -9.582,-9.644C-9.493,-9.61 -9.35,-9.593 -9.282,-9.665C-9.182,-9.691 -9.13,-9.776 -9.022,-9.79L-8.854,-9.846L-8.69,-9.973L-8.559,-10.088C-8.487,-10.17 -8.367,-10.199 -8.303,-10.294L-8.146,-10.396L-8.007,-10.473C-7.907,-10.52 -7.839,-10.606 -7.731,-10.644L-7.647,-10.626L-7.699,-10.516L-7.899,-10.413L-8.146,-10.259C-8.251,-10.199 -8.355,-10.127 -8.434,-10.05L-8.623,-9.888L-8.83,-9.738C-8.934,-9.721 -9.026,-9.661 -9.126,-9.631C-9.205,-9.606 -9.269,-9.55 -9.358,-9.533L-9.557,-9.524L-9.733,-9.447C-9.825,-9.469 -9.829,-9.366 -9.909,-9.354C-10.009,-9.345 -10.117,-9.332 -10.221,-9.345C-10.328,-9.332 -10.4,-9.435 -10.505,-9.388C-10.592,-9.392 -10.668,-9.435 -10.752,-9.439C-10.864,-9.482 -10.967,-9.524 -11.063,-9.593L-11.219,-9.674L-11.387,-9.713L-11.379,-9.657C-11.319,-9.546 -11.187,-9.512 -11.1,-9.417L-11.063,-9.413L-10.956,-9.29L-10.94,-9.238L-10.92,-9.209L-10.848,-9.123L-10.74,-8.965L-10.596,-8.828L-10.56,-8.742L-10.505,-8.661L-10.484,-8.585C-10.409,-8.516 -10.292,-8.52 -10.2,-8.486L-10.181,-8.452L-10.241,-8.358L-10.204,-8.242C-10.291,-7.918 -10.451,-7.77 -10.409,-7.358L-10.388,-7.319L-10.381,-7.26L-10.364,-7.213L-10.356,-7.158L-10.336,-7.11L-10.336,-7.017L-10.32,-6.944L-10.304,-6.811L-10.285,-6.769L-10.285,-6.67L-10.304,-6.619L-10.32,-6.559L-10.313,-6.507L-10.296,-6.426L-10.3,-6.376L-10.296,-6.376L-10.292,-6.324C-10.178,-6.125 -10.24,-6.151 -10.168,-6.008L-10.068,-5.884L-10.096,-5.798L-10.121,-5.696L-10.132,-5.473L-10.033,-5.235L-9.893,-5.197L-9.714,-5.298C-9.597,-5.32 -9.541,-5.431 -9.461,-5.487L-9.441,-5.521L-9.382,-5.619L-9.354,-5.691L-9.365,-5.709L-9.365,-5.837L-9.329,-5.876L-9.226,-5.842L-9.226,-5.666L-9.25,-5.602L-9.269,-5.546L-9.305,-5.478C-9.369,-5.401 -9.437,-5.32 -9.525,-5.264L-9.582,-5.217L-9.741,-5.111L-9.585,-5.012L-9.525,-5.034L-9.518,-5.076C-9.425,-5.175 -9.337,-5.008 -9.226,-5.038L-9.198,-5.094L-9.198,-5.141L-9.114,-5.145L-8.847,-5.162C-8.734,-5.226 -8.91,-5.247 -8.89,-5.324L-8.662,-5.397L-8.674,-5.435L-8.698,-5.473L-8.69,-5.512L-8.555,-5.56L-8.51,-5.521L-8.615,-5.419L-8.594,-5.342L-8.587,-5.337L-8.594,-5.308L-8.734,-5.115L-8.774,-5.06L-8.906,-5.012L-9.002,-4.935L-8.986,-4.816L-8.774,-4.645L-8.715,-4.675L-8.655,-4.653L-8.647,-4.628L-8.638,-4.482L-8.623,-4.457L-8.615,-4.385L-8.594,-4.307L-8.587,-4.244L-8.57,-4.218L-8.559,-4.149L-8.542,-4.107L-8.555,-4.038L-8.615,-4.081L-8.63,-4.119L-8.638,-4.179L-8.655,-4.226L-8.69,-4.38L-8.71,-4.435L-8.715,-4.397L-8.698,-4.346L-8.698,-4.234L-8.69,-4.23L-8.683,-4.055L-8.666,-4.004C-8.615,-3.816 -8.616,-3.602 -8.498,-3.444L-8.427,-3.307L-8.347,-3.115C-8.183,-2.833 -8.021,-2.426 -7.856,-2.162L-7.795,-2.047L-7.743,-1.995L-7.747,-2.102L-7.699,-2.14L-7.652,-2.047L-7.592,-1.902L-7.568,-1.854L-7.539,-1.812L-7.479,-1.791L-7.42,-1.858L-7.328,-1.816L-7.18,-1.624L-7.164,-1.598L-7.148,-1.56L-7.032,-1.445L-6.804,-1.475L-6.793,-1.495L-6.772,-1.577L-6.648,-1.521C-6.584,-1.423 -6.493,-1.346 -6.421,-1.256C-6.293,-1.145 -6.185,-1.026 -6.03,-0.941L-5.99,-0.949L-5.845,-0.927C-5.745,-0.834 -5.593,-0.8 -5.482,-0.727C-5.402,-0.654 -5.278,-0.628 -5.178,-0.577C-5.09,-0.534 -4.986,-0.534 -4.903,-0.492C-4.751,-0.453 -4.635,-0.359 -4.495,-0.312C-4.379,-0.29 -4.295,-0.209 -4.172,-0.214C-4.059,-0.193 -3.955,-0.137 -3.84,-0.124C-3.731,-0.111 -3.632,-0.056 -3.524,-0.073L-3.373,-0.034C-3.277,0.012 -3.168,-0.004 -3.06,0.008C-2.973,0.038 -2.868,0.034 -2.777,0.051C-2.657,0.094 -2.549,0.017 -2.429,0.03C-2.086,0.068 -1.742,0.008 -1.419,-0.052C-1.287,-0.09 -1.135,-0.073 -1.003,-0.115L-0.903,-0.129L-0.787,-0.145L-0.727,-0.226L-0.739,-0.27L-0.62,-0.381L-0.763,-0.453L-0.767,-0.496C-0.684,-0.552 -0.563,-0.517 -0.464,-0.526L-0.284,-0.538L-0.104,-0.53L-0.044,-0.615L0.028,-0.628L0.052,-0.59L0.06,-0.526L0.076,-0.427C0.15,-0.202 0.114,0.107 0.156,0.312L0.156,0.504C-0.356,1.594 -0.516,0.989 0.024,2.11L0.052,2.183C0.058,2.4 0.273,2.621 0.275,2.799L0.288,2.88L0.316,2.931L0.328,3.008L0.336,3.008L0.339,3.043C0.678,4.069 1.384,5.109 1.898,6.042L2.01,6.191L2.165,6.174L2.182,5.957L2.19,5.953L2.21,5.88L2.233,5.824L2.25,5.781L2.269,5.717L2.278,5.64L2.293,5.55L2.305,5.435L2.321,5.371L2.321,5.264L2.329,5.256L2.341,5.098L2.346,5.098L2.353,4.957C2.38,4.9 2.4,4.754 2.425,4.717L2.425,4.601L2.433,4.597L2.433,4.234L2.442,4.226L2.449,4.17L2.465,4.127L2.478,4.067L2.493,3.96L2.493,3.807L2.51,3.764L2.521,3.674L2.537,3.606L2.545,3.517L2.565,3.491L2.553,3.466L2.565,3.371L2.569,3.119L2.581,3.115L2.589,2.88L2.601,2.785L2.606,2.785L2.597,2.773C2.593,2.571 2.646,2.359 2.629,2.231L2.625,2.055L2.613,2.051L2.613,1.953L2.597,1.884L2.597,1.765L2.589,1.761L2.581,1.619L2.589,1.487L2.589,1.243L2.569,1.187L2.581,1.124L2.581,1.012L2.569,1.004L2.569,0.863L2.565,0.769L2.545,0.718L2.537,0.633L2.521,0.572L2.493,0.482C2.417,0.363 2.261,0.32 2.11,0.316C2.022,0.32 1.962,0.252 1.882,0.24C1.79,0.196 1.682,0.188 1.579,0.163C1.475,0.123 1.387,0.043 1.33,-0.047L1.311,-0.094C1.334,-0.635 1.07,-0.866 1.067,-1.154L1.11,-1.193L1.215,-1.116L1.234,-1.082L1.251,-1.03L1.394,-1.068C1.51,-1.094 1.598,-1.158 1.682,-1.227C1.85,-1.32 2.005,-1.445 2.197,-1.491L2.269,-1.521C2.361,-1.534 2.433,-1.586 2.525,-1.602C2.645,-1.684 2.804,-1.717 2.9,-1.829L2.889,-1.884L2.753,-1.906L2.685,-1.957L2.861,-2.06L3.141,-2.218C3.296,-2.269 3.405,-2.384 3.492,-2.495L3.512,-2.551L3.48,-2.569C3.4,-2.539 3.312,-2.5 3.22,-2.509L3.141,-2.564L3.252,-2.624C3.408,-2.658 3.556,-2.735 3.656,-2.837L3.812,-2.991L3.955,-3.141L4.063,-3.26L4.159,-3.367L4.207,-3.367L4.175,-3.286" style="fill-rule:nonzero;"/>
            </g>
            <g id="path6495" transform="matrix(1,0,0,1,526.477,63.9169)">
                <path d="M0,0L0.016,-0.026L0.02,-0.141L0.024,-0.209L0.016,-0.218L-0.084,-0.248L-0.12,-0.222L-0.14,-0.179L-0.176,-0.06L-0.147,-0.026L-0.147,-0.012L-0.104,0.008L0,0Z" style="fill-rule:nonzero;"/>
            </g>
        </g>
    </g>
</svg>
